<?xml version="1.0" encoding="ISO-8859-1" standalone="no"?>
<svg width="640" height="480" viewBox="0 0 64 48"
     xmlns="http://www.w3.org/2000/svg"
     xmlns:xlink="http://www.w3.org/1999/xlink">
  <title><!-- title --></title>
  <desc>
<!-- description -->

by Philippe Lhoste -- PhiLho (at) GMX.net -- http://Phi.Lho.free.fr
v. 1.0 -- 2004/07/12 -- Original release
  </desc>
  <!-- content -->

<path d="M 15.7 7.0C 18.5 7.4 20.0 9.9 21.0 12.1C 22.3 15.5 23.1 19.5 21.9 22.7C 21.3 24.0 20.2 24.5 18.9 24.7C 18.0 24.6 17.4 24.4 16.7 24.4C 15.3 25.4 17.4 27.3 16.5 28.8C 16.0 29.7 15.0 30.3 13.8 30.5C 13.2 30.3 12.6 30.2 12.3 30.0C 12.2 29.8 11.8 29.5 12.1 29.1C 12.9 29.0 13.6 28.5 14.0 27.6C 13.8 26.3 14.5 24.7 13.3 23.7C 13.0 23.5 12.8 23.5 12.8 23.5L 8.4 22.9C 8.0 23.1 7.6 23.8 7.0 24.0C 6.2 23.3 6.9 22.0 7.0 21.3C 7.4 20.4 8.3 19.9 9.2 19.8C 10.7 20.1 11.6 20.9 12.8 21.2C 12.9 17.7 10.2 14.3 8.4 11.6C 7.5 10.7 7.1 10.1 6.7 9.2C 6.7 8.5 7.3 8.0 8.0 7.7C 9.6 7.7 10.3 9.2 11.1 10.4C 13.0 14.3 13.8 18.5 15.5 22.5C 16.6 23.3 18.8 24.0 20.1 23.0C 21.8 20.6 20.2 16.8 19.3 13.8C 18.8 12.7 18.1 11.9 17.6 11.1C 16.7 10.1 15.0 10.5 13.6 10.8L 15.5 7.0C 15.5 7.0 15.7 7.0 15.7 7.0M 31.5 16.7L 32.4 16.8C 33.6 17.6 33.9 19.3 33.5 20.7C 32.7 22.7 31.1 24.0 29.0 24.4C 28.6 24.4 28.4 24.4 28.1 24.4C 29.1 23.4 30.3 22.0 30.5 20.1C 30.3 19.2 29.2 18.9 28.6 18.1L 31.5 16.7"/></svg>
