<?xml version="1.0" standalone="yes"?>
<svg width="262" height="133">
<path style="fill:#ffffff; stroke:none;" d="M0 0L0 133L262 133L262 0L0 0z"/>
<path style="fill:#000000; stroke:none;" d="M70 67C73.9452 61.6982 72.7658 55.2471 73.0394 49C73.5133 38.1764 73.1703 26.7359 74.5756 16C74.9699 12.988 75.3284 1.89088 69.2492 3.88966C64.7081 5.38277 65.7222 15.5004 66.375 19C69.3172 34.7729 70 50.9162 70 67M132.09 4.86111C127.03 6.14335 127.478 11.0253 128.197 15.0008C129.942 24.6487 130 35.1985 130 45C130 65.8291 128.8 86.3142 126.83 107C126.33 112.257 123.296 125.279 128.514 128.971C134.079 132.909 149.36 127.072 156 127.004C162.244 126.94 172.201 132.013 177.677 128.566C184.122 124.51 173.126 121.165 170 121.39C160.259 122.091 148.279 126.891 139.188 120.525C132.472 115.823 134.159 107.081 133.985 100C133.565 82.8341 134.565 66.1562 134.985 49C135.275 37.1655 137.454 25.6831 137.961 14C138.126 10.1859 137.853 3.40054 132.09 4.86111M189 64C189 48.933 189.465 34.0085 190.011 19C190.146 15.2912 192.884 4.99307 186.015 5.5463C180.473 5.99254 181.96 15.3092 182.004 19C182.134 29.8662 183.986 42.1776 185.424 53C185.953 56.9788 185.627 61.4319 189 64M24 66L29 59L20 62C21.1471 77.1632 55.4811 70.992 61.2978 60.9992C62.7236 58.5499 63.174 55.7689 63.5718 53C66.764 30.7772 42.3399 35.4065 28 33.7145C22.9709 33.1211 8.43289 30.3436 4.66204 34.5988C-0.0609927 39.9284 12.4072 41.0995 15 40.9552C29.0135 40.1758 42.936 31.0925 56.9452 40.0748C65.9459 45.8458 61.8203 60.5141 53.8264 65.2315C46.5935 69.4998 31.9317 67.4725 24 66M32 41C30.2728 46.8433 29.4781 59.1025 35 63L34 41L32 41M109.059 46.8511C102.422 48.8201 103.913 63.1904 111.957 60.3773C119.382 57.7807 117.209 44.4329 109.059 46.8511z"/>
<path style="fill:#ffffff; stroke:none;" d="M110 49C103.776 60.7311 119.58 55.5543 110 49z"/>
<path style="fill:#000000; stroke:none;" d="M180 80L176 80C177.692 69.2988 198.495 68.3213 204.297 76.1088C211.257 85.45 206 104.181 206 115C206 118.781 204.809 125.421 207.738 128.392C215.578 136.341 214.076 114.374 213.989 112C213.608 101.537 212.833 80.4833 205.362 72.5332C199.478 66.2718 178.739 65.7831 174.183 74.1088C171.637 78.7609 176.294 85.559 180 80M109.777 70.0471C107.098 72.2499 109.131 80.0613 109.59 83C111.58 95.742 108.847 107.304 109.004 120C109.039 122.832 109.848 130.855 114.621 127.338C119.113 124.028 117.191 118.415 116.285 114C113.673 101.268 115.082 89.7482 114.999 77C114.984 74.7075 114.242 66.3754 109.777 70.0471M238.989 69.6667C230.604 70.9912 226.8 82.082 224.847 89C219.849 106.708 217.463 135.308 245 130.674C266.276 127.094 261.151 96.8903 254.651 83C252.327 78.0323 245.385 68.6564 238.989 69.6667M66 83L66 82C61.5445 80.4232 57.1404 76.4147 64.0201 73.7461C67.2217 72.5042 70.727 73.6866 74 73.9105C78.7012 74.2321 84.8409 72.8137 88.581 76.4336C92.6661 80.3875 91.2451 85.997 91 91C90.3696 103.866 87.5851 115.992 90 129C92.7561 128.909 95.7439 129.018 96.6821 125.852C100.064 114.436 95.2837 96.9572 94.9853 85C94.8796 80.7611 94.281 75.5428 90.6566 72.7423C85.6771 68.8946 64.0202 69.0836 59.4336 73.5139C53.6397 79.1104 60.2693 83.8451 66 83M33 72C30.3474 86.2883 30.0679 102.453 29.0895 117C28.8243 120.944 28.5715 128.958 34.0502 129.534C41.9756 130.367 38.3855 120.027 38.0903 116C37.1376 103.003 39.2149 83.6898 33 72z"/>
<path style="fill:#ffffff; stroke:none;" d="M249 119C249.594 112.399 252.032 106.809 251.999 100C251.979 95.8336 251.304 92.0602 250.445 88C248.849 80.456 242.619 66.1943 233.699 76.5185C227.845 83.2943 225.411 112.084 232.533 118.436C237.213 122.609 243.721 120.207 249 119z"/>
<path style="fill:#000000; stroke:none;" d="M187 75C187 89.5342 186.797 104.693 184.468 119C183.958 122.13 183.994 130.158 189.049 129.418C194.373 128.639 193.096 120.66 192.572 117C190.615 103.338 189.038 88.8199 189 75L187 75M70 77C70.5739 90.3659 67.9107 102.718 68.0046 116C68.025 118.873 67.6551 126.968 71.2623 128.029C76.5036 129.572 76.0934 119.735 75.9105 117C75.1998 106.373 76.8659 85.3879 70 77z"/>
</svg>
