<?xml version="1.0" standalone="no"?>
<!DOCTYPE svg PUBLIC "-//W3C//DTD SVG 20010904//EN"
 "http://www.w3.org/TR/2001/REC-SVG-20010904/DTD/svg10.dtd">
<svg version="1.0" xmlns="http://www.w3.org/2000/svg"
 width="468pt" height="238pt" viewBox="0 0 468 238"
 preserveAspectRatio="xMidYMid meet">
<metadata>
Created by potrace 1.5, written by Peter Selinger 2001-2004
</metadata>
<g transform="translate(0,238) scale(0.178626,-0.178626)"
fill="#000000" stroke="none">
<path d="M680 1290 c-18 -11 -19 -130 -2 -230 6 -36 14 -141 18 -235 6 -149 8
-166 19 -140 15 34 39 566 26 575 -4 3 -10 13 -14 23 -7 19 -24 22 -47 7z"/>
<path d="M1295 1266 c-25 -23 -25 -25 -13 -77 18 -76 17 -697 -1 -796 -17 -98
-20 -338 -4 -354 9 -9 40 -8 142 6 136 19 250 17 276 -5 19 -16 94 -3 102 17
19 49 -50 68 -160 47 -108 -22 -230 -7 -266 33 -23 25 -26 37 -33 167 -9 154
6 628 24 761 22 156 22 195 1 210 -26 20 -38 18 -68 -9z"/>
<path d="M1832 1268 c-15 -15 -16 -157 -2 -208 5 -19 14 -100 20 -179 11 -151
17 -191 30 -191 4 0 10 111 14 248 3 136 9 261 12 278 9 49 -41 85 -74 52z"/>
<path d="M41 987 c-30 -37 14 -67 97 -67 26 0 57 7 68 15 56 39 264 41 352 4
46 -20 62 -47 62 -103 0 -60 -12 -94 -46 -133 l-34 -38 -137 -3 c-160 -3 -182
4 -140 44 16 14 26 28 24 30 -8 8 -57 -7 -57 -17 0 -5 -7 -9 -15 -9 -22 0 -19
-44 5 -65 18 -16 35 -17 162 -13 79 3 151 9 160 13 9 3 32 27 51 51 27 35 37
58 42 103 7 63 -9 141 -30 141 -7 0 -22 8 -33 19 -24 20 -80 26 -352 37 -146
6 -167 5 -179 -9z"/>
<path d="M313 904 c-7 -18 3 -161 13 -187 13 -35 24 -15 24 47 0 120 -18 189
-37 140z"/>
<path d="M1072 854 c-17 -12 -22 -25 -22 -63 0 -26 5 -52 12 -59 21 -21 65
-14 87 14 29 37 27 78 -5 103 -32 25 -43 26 -72 5z m68 -60 c0 -26 -24 -48
-45 -40 -18 6 -20 57 -4 73 16 16 49 -6 49 -33z"/>
<path d="M1815 635 c-55 -15 -85 -44 -85 -80 0 -28 26 -57 48 -53 24 5 27 28
3 28 -16 0 -21 6 -21 26 0 38 55 58 156 57 153 -2 159 -15 149 -319 -8 -239
-4 -264 39 -264 39 0 48 44 36 171 -14 146 -47 332 -66 373 -9 18 -28 40 -43
48 -39 23 -156 30 -216 13z"/>
<path d="M1087 627 c-3 -7 -3 -24 -1 -38 26 -183 26 -191 13 -339 -13 -158 -8
-202 23 -208 24 -5 60 56 53 88 -27 124 -36 217 -33 354 l3 151 -26 3 c-16 2
-29 -3 -32 -11z"/>
<path d="M2367 625 c-31 -16 -66 -54 -67 -71 0 -6 -9 -19 -19 -28 -10 -10 -21
-32 -24 -49 -2 -18 -13 -59 -23 -92 -27 -87 -26 -226 2 -280 31 -59 72 -79
163 -80 93 0 125 14 166 75 29 43 30 49 29 145 -1 98 -7 150 -23 190 -37 91
-50 111 -99 155 -30 28 -60 50 -66 50 -6 0 -24 -7 -39 -15z m70 -37 c18 -13
36 -32 39 -43 3 -11 9 -29 14 -40 31 -76 40 -244 15 -291 -8 -16 -15 -38 -15
-50 0 -27 -66 -48 -121 -39 -30 5 -43 15 -60 42 -20 33 -21 42 -15 176 8 162
22 212 69 244 40 27 35 27 74 1z"/>
<path d="M610 607 c-27 -14 -46 -56 -37 -81 9 -22 54 -39 74 -27 13 7 8 11
-21 21 -42 14 -48 40 -14 65 19 12 42 14 128 10 143 -8 149 -10 166 -50 11
-28 12 -50 3 -122 -15 -117 -22 -307 -14 -350 6 -31 9 -34 38 -31 l32 3 -1 85
c-1 99 -13 336 -20 397 -3 24 -15 52 -29 67 -23 25 -27 26 -152 26 -83 0 -137
-5 -153 -13z"/>
<path d="M327 580 c-3 -19 -11 -114 -17 -210 -7 -96 -14 -200 -16 -230 -5 -64
11 -103 45 -108 31 -5 64 26 56 53 -3 11 -10 70 -15 130 -16 198 -31 341 -39
371 l-8 29 -6 -35z"/>
<path d="M1867 458 c-4 -66 -7 -152 -7 -190 0 -38 -5 -89 -11 -114 -9 -34 -9
-55 0 -85 12 -40 27 -47 62 -29 22 12 24 44 9 164 -6 45 -15 147 -21 229 -7
81 -15 147 -19 147 -4 0 -10 -55 -13 -122z"/>
<path d="M703 458 c0 -57 -6 -143 -12 -193 -15 -102 -7 -210 15 -219 24 -9 42
4 49 36 11 49 -26 453 -43 470 -5 5 -9 -38 -9 -94z"/>
</g>
</svg>
