<?xml version="1.0" standalone="yes"?>
<svg width="262" height="133">
<path style="fill:#ffffff" d="M262 0 l0 133 l-262 0 l0 -133 l262 0 z"/>
<path style="fill:#000000" d="M69 3 c4.193 -1.514 3.054 3.761 5.75 4.25 c-1.956 19.36 1.428 41.64 -4.5 59.5 c-0.3729 -19.61 -2.067 -38.71 -4.25 -57.75 l3 -6 z"/>
<path style="fill:#000000" d="M132 4 l5.75 2.25 c-2.316 36.54 -7.319 74.62 -2.5 111.5 c8.381 8.457 23.94 6.79 34.75 3.25 c3.67 0.889 10.73 0.154 10 6 l-6 3 c-14.64 -7.233 -32.08 1.187 -46.75 -1.25 c-2.119 -39 8.015 -80.52 -0.25 -119.8 l5 -5 z"/>
<path style="fill:#000000" d="M184 5 c2.176 -0.4003 3.894 0.3826 5.75 1.25 c0.2079 18.01 -0.5527 39.49 -1.75 57.75 c-2.726 -18.29 -8.243 -40.32 -4 -59 z"/>
<path style="fill:#000000" d="M5 33 c19.07 1.325 40.52 -1.905 56.75 6.25 c11.66 25.56 -17.43 36.25 -38.5 30.5 c-2.365 -1.83 -4.301 -4.381 -3 -7.5 c5.766 -4.024 11.38 -3.425 3.75 2.75 c2.884 3.571 8.76 1.41 13 2 c16.2 4.824 30.33 -8.93 23.75 -24.75 c-11.94 -8.451 -30.22 -8.013 -42.75 -1.25 c-4.545 -0.08898 -9.428 0.6557 -13.25 -1.75 c-2.942 -1.642 -1.378 -4.454 0.25 -6.25 z"/>
<path style="fill:#000000" d="M32 41 l1.75 0.25 c0.6741 6.869 2.762 15.47 0.25 21.75 c-3.471 -5.771 -3.947 -15.13 -2 -22 z"/>
<path style="fill:#000000" d="M109 46 c8.826 -0.7511 10.81 11.87 3 15 c-9.218 2.512 -9.339 -12.6 -3 -15 z"/>
<path style="fill:#ffffff" d="M110 49 c4.437 1.063 5.798 7.166 1 9 c-4.685 -0.002579 -3.466 -6.895 -1 -9 z"/>
<path style="fill:#000000" d="M186 68 c18.25 -3.871 25.7 11.77 26 27 l2 21 c1.35 4.647 1.243 9.44 -1.25 13.75 c-2.836 1.109 -5.721 -0.1047 -6.5 -3 c-2.301 -17.17 4.346 -35.17 -1.5 -51.5 c-7.62 -5.672 -23.29 -6.198 -28.75 1.75 c9.625 8.219 -7.747 6.275 -1.75 -3.75 c1.238 -1.642 2.991 -2.451 4.75 -3.25 c2.316 -0.3524 5.498 -0.5326 7 -2 z"/>
<path style="fill:#000000" d="M109 69 c1.937 0.2295 4.492 -0.7654 5.75 1.25 c0.04758 17.54 -2.267 35.3 3.25 51.75 c-1.573 2.475 -2.268 7.005 -6 7 c-1.93 -0.4057 -2.088 -2.654 -3 -4 c1.791 -18.96 1.761 -38.05 0 -56 z"/>
<path style="fill:#000000" d="M239 69 c21.94 7.711 32.35 53.21 6 62 c-36.41 4.163 -26.07 -50.87 -6 -62 z"/>
<path style="fill:#000000" d="M63 71 l27.75 1.25 c6.158 6.525 3.792 16.24 4.25 24.75 l2 20 c0.1242 5.19 1.684 14.87 -6.75 11.75 c-5.634 -17.46 4.791 -36.05 -0.5 -52.5 c-7.713 -2.118 -30.87 -8.161 -29.75 3.75 c13.09 3.09 -5.097 6.564 -3 -3 c0.6501 -3.273 3.802 -4.803 6 -6 z"/>
<path style="fill:#000000" d="M33 72 c5.393 16.53 2.813 36.64 7 54 c-0.8019 1.616 -2.384 3.198 -4 4 c-2.336 0.4256 -4.418 -0.244 -5.75 -2.25 c-2.135 -18.14 2.51 -37.16 2.75 -55.75 z"/>
<path style="fill:#ffffff" d="M239 72 c16.44 7.174 14.34 32.01 9.75 46.75 l-6.75 2.25 c-13.68 2.383 -15.15 -14.5 -12 -24 c-0.946 -9.777 0.2158 -20.23 9 -25 z"/>
<path style="fill:#000000" d="M187 75 c0.6634 -0.01862 2.155 -0.1814 2 1 l3.75 51.75 c-1.535 1.444 -3.557 2.534 -5.75 2.25 l-3 -6 c2.747 -15.83 2.331 -32.57 3 -49 z"/>
<path style="fill:#000000" d="M70 77 c5.696 14.7 5.835 34.52 4.75 50.75 l-2.75 1.25 l-2.75 -1.25 c-4.501 -17.1 4.646 -33.66 0.75 -50.75 z"/>
</svg>
