<?xml version="1.0" encoding="ISO-8859-1" standalone="no"?>
<svg width="100%" height="100%" viewBox="2850 1700 200 200">
<circle cx="2930" cy="1870" r="20" fill="red" stroke="black" stroke-width="red"/>
<g fill="lightgreen" stroke="#0" stroke-width="0.2" transform="translate(40, -10)">

        <path id="ad" d="M 2898 1882 2898 1882 2899 1881 2900 1881 2902 1882 2903 1882 2903 1883 2903 1883 2903 1883 2903 1883 2903 1884 2902 1884 2901 1884 2900 1885 2899 1885 2898 1885 2898 1884 2898 1883 2898 1882 2898 1882" />
        <path id="fr" d="M 2975 1823 2975 1823 2975 1822 2976 1821 2976 1821 2979 1821 2979 1820 2981 1820 2982 1821 2983 1821 2984 1821 2984 1821 2984 1822 2983 1825 2985 1826 2986 1827 2987 1828 2987 1828 2987 1829 2987 1830 2986 1830 2986 1830 2985 1830 2985 1830 2984 1830 2984 1831 2984 1832 2986 1834 2987 1835 2988 1836 2989 1837 2989 1838 2989 1840 2988 1840 2986 1841 2984 1841 2983 1841 2982 1841 2981 1842 2981 1842 2981 1842 2981 1843 2983 1845 2983 1845 2984 1846 2985 1846 2986 1846 2986 1846 2987 1846 2987 1846 2987 1848 2986 1849 2986 1849 2984 1851 2984 1851 2985 1854 2986 1855 2987 1856 2992 1858 2994 1858 2994 1858 2995 1857 2997 1857 2997 1857 2997 1858 2998 1858 2998 1859 2997 1860 2996 1860 2995 1862 2995 1863 2995 1863 2995 1863 2995 1863 2994 1864 2994 1863 2993 1864 2993 1864 2992 1864 2991 1864 2989 1865 2988 1867 2985 1869 2984 1869 2984 1869 2981 1871 2981 1871 2982 1871 2981 1873 2980 1873 2979 1873 2977 1873 2974 1874 2973 1875 2973 1875 2973 1875 2973 1875 2972 1874 2970 1874 2970 1874 2969 1875 2968 1875 2967 1874 2968 1874 2966 1873 2963 1872 2961 1872 2961 1872 2961 1872 2961 1871 2961 1870 2960 1870 2960 1870 2959 1870 2958 1870 2956 1870 2955 1870 2956 1869 2956 1869 2957 1869 2958 1869 2959 1868 2959 1868 2955 1867 2955 1867 2955 1868 2956 1868 2955 1869 2955 1869 2955 1869 2954 1869 2954 1869 2953 1869 2953 1869 2952 1869 2952 1869 2951 1869 2951 1869 2951 1868 2951 1867 2950 1867 2951 1869 2951 1869 2951 1870 2949 1870 2949 1870 2948 1870 2948 1870 2948 1869 2948 1869 2947 1868 2947 1868 2946 1868 2946 1868 2946 1868 2944 1868 2944 1868 2943 1868 2943 1868 2943 1868 2944 1868 2942 1868 2941 1868 2941 1868 2941 1867 2941 1867 2940 1867 2938 1867 2938 1867 2936 1868 2934 1869 2932 1871 2930 1871 2928 1871 2928 1872 2927 1872 2925 1873 2924 1875 2924 1875 2924 1876 2923 1878 2922 1878 2922 1879 2923 1879 2923 1879 2924 1880 2924 1882 2924 1883 2925 1883 2925 1883 2925 1884 2926 1885 2926 1885 2926 1885 2925 1885 2924 1885 2924 1884 2922 1884 2919 1885 2918 1885 2917 1886 2918 1886 2915 1886 2915 1886 2914 1886 2912 1885 2911 1885 2909 1885 2909 1885 2908 1886 2908 1886 2907 1886 2907 1886 2907 1886 2906 1885 2905 1885 2905 1884 2903 1884 2903 1884 2903 1883 2903 1883 2903 1883 2903 1883 2903 1882 2902 1882 2900 1881 2899 1881 2898 1882 2898 1881 2897 1881 2897 1880 2896 1880 2894 1880 2893 1880 2893 1879 2892 1879 2889 1879 2888 1878 2886 1878 2886 1878 2886 1878 2885 1879 2886 1880 2886 1880 2886 1880 2886 1881 2886 1881 2885 1881 2884 1881 2883 1881 2882 1881 2879 1880 2878 1880 2877 1880 2877 1880 2875 1881 2874 1880 2873 1880 2873 1879 2872 1879 2872 1879 2871 1879 2870 1878 2870 1878 2870 1878 2869 1879 2866 1879 2864 1878 2863 1877 2863 1877 2863 1877 2863 1876 2862 1876 2862 1877 2860 1876 2859 1876 2858 1876 2856 1875 2854 1875 2853 1875 2853 1875 2852 1875 2852 1874 2852 1874 2853 1872 2853 1872 2852 1871 2851 1871 2849 1871 2848 1871 2847 1871 2847 1870 2847 1870 2847 1870 2848 1870 2850 1869 2851 1868 2851 1867 2852 1865 2852 1865 2852 1865 2852 1863 2854 1859 2854 1858 2854 1857 2855 1853 2855 1852 2855 1852 2855 1851 2856 1850 2857 1849 2857 1849 2858 1849 2858 1849 2858 1848 2857 1848 2856 1847 2855 1848 2855 1849 2855 1848 2856 1844 2856 1840 2857 1838 2857 1837 2857 1837 2857 1836 2858 1835 2858 1835 2858 1835 2858 1835 2859 1836 2859 1836 2860 1836 2860 1837 2862 1838 2863 1839 2863 1839 2863 1840 2863 1841 2864 1842 2864 1842 2866 1845 2866 1844 2866 1843 2865 1843 2865 1843 2865 1842 2864 1842 2864 1839 2864 1838 2863 1837 2863 1836 2862 1836 2861 1835 2859 1834 2858 1833 2856 1833 2855 1832 2855 1831 2856 1831 2857 1831 2857 1830 2858 1829 2858 1828 2858 1827 2857 1826 2857 1825 2857 1824 2857 1823 2856 1823 2856 1823 2856 1823 2855 1823 2852 1822 2849 1821 2846 1820 2846 1819 2845 1818 2844 1817 2843 1816 2843 1815 2842 1815 2842 1815 2841 1815 2841 1815 2841 1814 2841 1813 2842 1813 2843 1812 2843 1811 2843 1811 2843 1811 2842 1810 2841 1810 2840 1810 2841 1808 2841 1807 2842 1807 2843 1807 2844 1807 2844 1808 2845 1808 2846 1808 2847 1808 2847 1808 2845 1807 2844 1807 2843 1807 2843 1807 2841 1807 2840 1807 2839 1808 2836 1808 2835 1807 2834 1807 2835 1806 2835 1805 2836 1805 2837 1805 2836 1805 2835 1805 2835 1804 2836 1804 2837 1804 2837 1804 2835 1803 2834 1803 2832 1804 2830 1804 2830 1804 2829 1803 2830 1803 2831 1803 2831 1803 2832 1802 2832 1802 2832 1802 2829 1802 2828 1803 2826 1802 2825 1802 2825 1803 2825 1804 2826 1804 2825 1804 2825 1803 2825 1803 2825 1803 2825 1802 2824 1802 2824 1801 2819 1800 2817 1799 2814 1799 2814 1799 2813 1799 2813 1798 2811 1798 2809 1798 2809 1798 2808 1799 2808 1799 2808 1799 2807 1799 2807 1799 2805 1799 2805 1799 2806 1798 2806 1798 2805 1797 2805 1797 2804 1796 2804 1796 2803 1796 2803 1796 2802 1796 2800 1795 2800 1795 2800 1795 2805 1794 2806 1794 2806 1794 2807 1794 2807 1793 2806 1793 2804 1792 2804 1792 2803 1792 2803 1793 2802 1793 2801 1791 2802 1791 2803 1790 2802 1791 2803 1791 2805 1791 2807 1791 2808 1791 2806 1791 2805 1791 2804 1790 2801 1790 2800 1790 2799 1790 2799 1790 2798 1789 2799 1788 2799 1787 2799 1787 2800 1787 2801 1787 2802 1787 2802 1787 2802 1787 2802 1786 2802 1786 2805 1785 2808 1785 2811 1784 2812 1784 2812 1785 2812 1785 2813 1786 2813 1785 2813 1785 2814 1784 2814 1784 2816 1784 2816 1785 2817 1785 2818 1785 2819 1784 2818 1784 2818 1783 2819 1783 2819 1782 2820 1782 2821 1783 2823 1782 2825 1782 2826 1783 2829 1785 2830 1786 2832 1787 2832 1788 2832 1788 2836 1786 2836 1785 2838 1785 2839 1785 2841 1786 2842 1786 2843 1788 2844 1787 2844 1787 2843 1786 2843 1786 2843 1785 2844 1785 2845 1785 2846 1785 2845 1785 2845 1786 2846 1786 2846 1786 2846 1786 2847 1786 2849 1786 2849 1786 2850 1786 2851 1786 2852 1786 2853 1786 2852 1785 2851 1785 2850 1784 2850 1782 2850 1782 2850 1781 2850 1780 2850 1780 2849 1779 2849 1778 2849 1776 2848 1775 2848 1775 2847 1774 2847 1774 2846 1774 2846 1772 2846 1771 2846 1770 2845 1770 2845 1769 2844 1769 2844 1769 2844 1768 2844 1768 2846 1768 2848 1769 2848 1769 2849 1769 2851 1769 2851 1769 2851 1769 2852 1769 2853 1769 2854 1769 2854 1769 2855 1769 2855 1769 2855 1770 2855 1770 2854 1771 2854 1771 2854 1771 2855 1772 2855 1772 2856 1773 2857 1774 2858 1774 2859 1774 2860 1774 2861 1774 2861 1774 2862 1774 2863 1774 2865 1774 2866 1774 2867 1774 2868 1774 2869 1775 2870 1775 2871 1775 2873 1775 2874 1775 2874 1775 2875 1775 2876 1774 2876 1774 2877 1774 2877 1773 2878 1773 2879 1773 2879 1773 2880 1773 2881 1773 2882 1773 2882 1772 2883 1772 2882 1772 2881 1773 2881 1773 2880 1773 2879 1773 2878 1772 2877 1772 2876 1772 2878 1769 2878 1769 2878 1768 2879 1768 2880 1768 2882 1767 2884 1766 2884 1766 2885 1766 2886 1766 2886 1766 2892 1765 2894 1764 2895 1764 2897 1763 2897 1763 2898 1762 2898 1762 2899 1761 2900 1759 2900 1758 2900 1758 2901 1758 2900 1757 2900 1755 2900 1753 2900 1753 2901 1751 2901 1750 2903 1749 2903 1749 2904 1749 2906 1748 2911 1747 2913 1747 2913 1747 2914 1747 2915 1747 2915 1747 2916 1746 2916 1748 2916 1749 2917 1751 2919 1752 2921 1752 2921 1753 2922 1752 2922 1752 2923 1752 2923 1752 2924 1751 2925 1751 2925 1751 2926 1752 2926 1752 2926 1752 2927 1753 2927 1755 2928 1756 2929 1756 2930 1756 2931 1756 2933 1756 2933 1757 2934 1757 2934 1758 2935 1758 2937 1758 2939 1758 2939 1758 2942 1759 2942 1760 2942 1762 2941 1764 2941 1764 2942 1764 2942 1765 2943 1764 2944 1764 2945 1765 2946 1765 2946 1765 2947 1765 2950 1764 2950 1763 2950 1763 2951 1762 2952 1761 2953 1762 2953 1762 2952 1763 2952 1764 2953 1767 2953 1767 2954 1767 2954 1767 2955 1767 2960 1769 2961 1770 2961 1770 2962 1770 2962 1771 2962 1772 2963 1772 2964 1771 2965 1771 2966 1771 2968 1771 2968 1771 2968 1771 2968 1772 2969 1772 2971 1773 2972 1773 2973 1772 2973 1772 2975 1772 2975 1772 2976 1772 2976 1772 2977 1773 2977 1772 2978 1772 2979 1773 2979 1773 2980 1774 2982 1776 2982 1777 2982 1777 2984 1777 2985 1777 2984 1776 2986 1776 2987 1777 2988 1778 2989 1778 2991 1778 2993 1777 2993 1777 2993 1777 2994 1777 2995 1777 2997 1779 2997 1779 2997 1779 2999 1779 3000 1779 3002 1779 3004 1780 3005 1780 3006 1780 3006 1781 3005 1782 3005 1782 3005 1782 3004 1783 3004 1783 3002 1784 3001 1785 3000 1787 2999 1789 2999 1790 2999 1790 2999 1790 2998 1791 2997 1793 2996 1794 2996 1794 2996 1795 2996 1795 2997 1796 2997 1796 2996 1797 2996 1798 2995 1799 2995 1801 2995 1801 2996 1802 2996 1802 2996 1802 2996 1802 2996 1803 2996 1803 2995 1803 2995 1803 2995 1804 2995 1804 2994 1804 2994 1804 2993 1805 2993 1805 2993 1805 2992 1805 2992 1805 2992 1805 2991 1805 2991 1805 2990 1805 2989 1804 2987 1804 2987 1804 2985 1806 2986 1806 2986 1806 2987 1806 2986 1807 2984 1809 2984 1809 2984 1810 2982 1811 2982 1811 2981 1812 2980 1812 2979 1812 2978 1813 2978 1814 2978 1815 2978 1816 2977 1816 2975 1817 2973 1818 2973 1819 2972 1821 2972 1821 2973 1821 2973 1822 2973 1823 2973 1823 2973 1824 2972 1824 2971 1824 2971 1824 2971 1824 2970 1824 2971 1825 2973 1825 2974 1825 2975 1824 2975 1824 2975 1823 M 2818 1783 2818 1783 2818 1783 2818 1783 2818 1783 2818 1783 2818 1783 2818 1783 2818 1783 2818 1783 M 2826 1807 2825 1807 2825 1807 2824 1807 2824 1807 2824 1807 2824 1807 2823 1807 2823 1806 2823 1806 2826 1807 2826 1807 2826 1807 M 2854 1825 2854 1825 2854 1825 2851 1825 2851 1824 2851 1824 2850 1824 2851 1824 2851 1824 2851 1824 2854 1825 2855 1825 2854 1825 M 2856 1831 2855 1830 2855 1830 2854 1829 2854 1829 2854 1829 2853 1829 2853 1828 2853 1827 2853 1827 2853 1827 2855 1828 2855 1828 2856 1830 2856 1830 2856 1831 2856 1831 M 3013 1892 3015 1891 3014 1890 3013 1890 3012 1890 3012 1889 3012 1888 3013 1888 3013 1888 3014 1887 3013 1886 3013 1886 3012 1886 3012 1886 3013 1884 3014 1883 3017 1882 3020 1881 3020 1880 3021 1880 3021 1880 3023 1880 3023 1881 3023 1881 3024 1881 3024 1880 3024 1879 3024 1878 3024 1876 3025 1876 3025 1876 3026 1876 3027 1879 3026 1879 3026 1880 3026 1881 3026 1881 3026 1882 3027 1883 3027 1882 3026 1882 3026 1881 3027 1882 3027 1882 3027 1883 3027 1883 3028 1887 3028 1889 3028 1890 3026 1892 3026 1892 3025 1893 3025 1894 3025 1894 3025 1894 3025 1896 3025 1897 3024 1898 3023 1899 3023 1900 3023 1901 3022 1902 3022 1902 3021 1901 3021 1901 3018 1900 3018 1900 3017 1900 3015 1899 3015 1898 3016 1898 3017 1897 3017 1897 3017 1896 3016 1896 3016 1896 3014 1896 3014 1896 3015 1895 3015 1894 3016 1893 3015 1893 3015 1893 3014 1893 3013 1893 3013 1893 3012 1892 3013 1892 3013 1892 3013 1892 3013 1892" />

</g>
</svg>
