<?xml version="1.0" encoding="UTF-8" standalone="no"?>
<svg
   xmlns:dc="http://purl.org/dc/elements/1.1/"
   xmlns:cc="http://creativecommons.org/ns#"
   xmlns:rdf="http://www.w3.org/1999/02/22-rdf-syntax-ns#"
   xmlns:svg="http://www.w3.org/2000/svg"
   xmlns="http://www.w3.org/2000/svg"
   version="1.1">
  <g
     id="layer1">
    <path
       id="path-1"
       d="M273.146,619.454 C264.192,618.153 253.181,615.189 243.671,611.52 C236.958,608.93 235.606,608.09 237.171,607.481 C238.257,607.058 244.546,604.454 251.146,601.695 L263.146,596.678 L268.792,598.009 C288.805,602.729 313.505,599.887 333.371,590.577 C362.596,576.882 383.376,551.656 390.8,520.861 L393.036,511.587 L395.482,513.828 C396.827,515.061 400.55,519.344 403.756,523.346 L409.584,530.623 L406.99,537.846 C391.544,580.861 353.279,612.345 308.333,619.019 C297.119,620.684 282.828,620.861 273.146,619.454 z"
       style="fill:#000000;fill-rule:nonzero;stroke:#000000;stroke-width:1" />
    <path
       id="path-2"
       d="M161.146,609.2 C150.001,607.594 143.884,606.201 131.312,602.403 L121.478,599.432 L122.119,594.251 C125.019,570.846 132.527,548.132 143.757,528.786 C148.577,520.483 159.754,504.344 160.304,504.894 C160.422,505.012 161.233,509.6 162.106,515.089 C162.98,520.578 164.155,526.491 164.718,528.228 C165.611,530.985 165.355,532.012 162.705,536.32 C157.266,545.16 150.871,559.846 147.726,570.719 C145.072,579.897 143.992,585.562 144.896,585.573 C145.034,585.575 149.722,586.464 155.315,587.55 C192.516,594.773 230.432,587.585 262.999,567.135 L271.851,561.576 L279.131,568.323 C283.135,572.034 286.178,575.463 285.892,575.945 C284.826,577.744 266.976,588.662 257.242,593.469 C235.254,604.326 213.322,609.535 187.146,610.117 C176.47,610.355 166.798,610.014 161.146,609.2 z"
       style="fill:#000000;fill-rule:nonzero;stroke:#000000;stroke-width:1" />
    <path
       id="path-3"
       d="M380.146,609.656 C369.26,608.244 359.646,606.4 359.672,605.729 C359.686,605.367 361.994,603.511 364.801,601.607 C367.607,599.702 372.086,596.182 374.754,593.783 L379.604,589.423 L390.875,590.098 C402.898,590.818 416.913,589.676 429.942,586.913 L437.737,585.261 L437.072,582.165 C433.954,567.659 426.637,548.92 419.377,536.843 C406.165,514.867 384.82,494.258 363.146,482.55 C358.746,480.173 354.992,478.113 354.803,477.973 C354.227,477.543 356.931,459.127 357.702,458.231 C358.597,457.19 373.639,464.659 383.496,471.039 C419.839,494.561 445.803,531.548 456.096,574.462 C457.467,580.177 458.885,588.125 459.247,592.123 L459.906,599.393 L450.526,602.397 C434.574,607.506 420.972,609.69 402.646,610.082 C393.571,610.276 383.446,610.085 380.146,609.656 z"
       style="fill:#000000;fill-rule:nonzero;stroke:#000000;stroke-width:1" />
    <path
       id="path-4"
       d="M309.364,585.179 C281.865,567.914 261.647,545.817 247.141,517.174 C240.593,504.243 232.76,482.018 234.257,480.614 C235.502,479.447 249.398,474.57 251.478,474.57 C252.743,474.57 253.539,476.074 254.519,480.32 C255.249,483.482 257.419,490.12 259.341,495.07 C272.756,529.609 299.829,558.939 333.347,575.244 C340.099,578.529 342.43,580.107 341.479,580.749 C336.695,583.981 321.649,590.568 319.049,590.569 C318.445,590.569 314.087,588.144 309.364,585.179 z"
       style="fill:#000000;fill-rule:nonzero;stroke:#000000;stroke-width:1" />
    <path
       id="path-5"
       d="M195.413,576.82 C180.301,558.14 171.391,539.198 167.54,517.57 C165.825,507.938 165.822,485.227 167.535,475.57 C172.694,446.475 188.01,419.977 210.314,401.559 C218.729,394.61 230.387,386.977 231.256,387.846 C231.527,388.117 230.808,392.022 229.658,396.524 C228.509,401.026 227.165,406.839 226.671,409.441 C225.888,413.571 224.646,415.309 216.9,423.121 C206.776,433.329 200.028,443.031 195.034,454.555 C177.722,494.502 186.364,539.492 217.298,570.467 C221.911,575.086 225.564,578.969 225.416,579.096 C224.601,579.794 206.432,583.57 203.886,583.57 C201.373,583.57 199.969,582.451 195.413,576.82 z"
       style="fill:#000000;fill-rule:nonzero;stroke:#000000;stroke-width:1" />
    <path
       id="path-6"
       d="M301.678,547.755 L294.21,540.9 L298.808,535.485 C313.634,518.025 325.691,491.968 330.312,467.397 C333.322,451.397 332.676,422.931 328.959,407.737 L328.388,405.405 L333.767,408.069 C336.726,409.534 341.93,412.608 345.332,414.901 L351.519,419.07 L352.223,425.544 C353.391,436.281 351.967,462.949 349.631,474.07 C346.896,487.093 341.656,502.705 336.036,514.569 C331.303,524.562 319.316,543.115 312.924,550.34 L309.146,554.611 L301.678,547.755 z"
       style="fill:#000000;fill-rule:nonzero;stroke:#000000;stroke-width:1" />
    <path
       id="path-7"
       d="M191.225,496.82 C191.378,494.757 191.749,489.653 192.049,485.477 C192.349,481.301 192.943,476.941 193.37,475.788 C195.111,471.086 218.912,458.399 237.646,452.187 C257.725,445.53 276.546,442.964 298.146,443.94 C311.196,444.53 325.865,446.455 327.157,447.747 C327.679,448.269 325.805,466.699 325.162,467.373 C325.003,467.54 321.109,466.997 316.509,466.166 C275.865,458.825 230.272,470.205 198.891,495.523 C195.451,498.299 192.256,500.57 191.791,500.57 C191.326,500.57 191.072,498.882 191.225,496.82 z"
       style="fill:#000000;fill-rule:nonzero;stroke:#000000;stroke-width:1" />
    <path
       id="path-8"
       d="M408.902,484.376 C406.568,482.007 401.551,477.82 397.753,475.07 C391.038,470.207 390.763,469.834 387.727,461.493 C375.995,429.261 349.061,404.928 315.146,395.922 C306.393,393.598 303.276,393.271 290.146,393.304 C280.443,393.328 272.851,393.874 268.646,394.849 C265.071,395.679 261.99,396.211 261.799,396.033 C261.324,395.589 264.852,386.297 268.094,379.453 C270.733,373.881 270.797,373.83 275.95,373.211 C284.895,372.137 299.775,372.518 309.318,374.065 C361.54,382.535 402.447,422.625 412.146,474.841 C413.042,479.664 413.634,484.752 413.461,486.147 C413.151,488.644 413.083,488.618 408.902,484.376 z"
       style="fill:#000000;fill-rule:nonzero;stroke:#000000;stroke-width:1" />
    <path
       id="path-9"
       d="M229.185,448.775 C228.362,447.952 228.589,436.188 229.635,425.442 C230.864,412.81 234.145,397.2 237.797,386.599 C242.188,373.859 252.762,353.291 260.392,342.65 C267.779,332.347 284.855,313.867 289.072,311.609 C291.685,310.211 291.876,310.337 301.257,319.629 C312.089,330.358 318.15,337.646 325.606,348.909 C330.61,356.469 341.015,376.534 340.302,377.248 C340.11,377.439 338.197,376.842 336.05,375.921 C333.903,375.001 328.321,373.245 323.646,372.02 L315.146,369.794 L308.881,360.525 C305.436,355.427 300.047,348.115 296.907,344.277 L291.197,337.298 L286.841,342.184 C264.191,367.589 250.274,401.984 249.549,434.348 C249.447,438.901 248.971,442.869 248.492,443.165 C246.528,444.379 229.684,449.274 229.185,448.775 z"
       style="fill:#000000;fill-rule:nonzero;stroke:#000000;stroke-width:1" />
  </g>
</svg>
