<?xml version="1.0" encoding="UTF-8" standalone="no"?>
<!-- Created with Inkscape (http://www.inkscape.org/) -->
<svg
   xmlns:dc="http://purl.org/dc/elements/1.1/"
   xmlns:cc="http://web.resource.org/cc/"
   xmlns:rdf="http://www.w3.org/1999/02/22-rdf-syntax-ns#"
   xmlns:svg="http://www.w3.org/2000/svg"
   xmlns="http://www.w3.org/2000/svg"
   xmlns:sodipodi="http://sodipodi.sourceforge.net/DTD/sodipodi-0.dtd"
   xmlns:inkscape="http://www.inkscape.org/namespaces/inkscape"
   width="1024"
   height="1024"
   id="svg2"
   sodipodi:version="0.32"
   inkscape:version="0.45.1"
   version="1.0"
   sodipodi:docbase="E:\Documents\Perso\Images"
   sodipodi:docname="Crown.svg"
   inkscape:output_extension="org.inkscape.output.svg.inkscape">
  <defs
     id="defs4" />
  <sodipodi:namedview
     id="base"
     pagecolor="#ffffff"
     bordercolor="#666666"
     borderopacity="1.0"
     gridtolerance="10000"
     guidetolerance="10"
     objecttolerance="10"
     inkscape:pageopacity="0.0"
     inkscape:pageshadow="2"
     inkscape:zoom="0.98994949"
     inkscape:cx="432.40263"
     inkscape:cy="405.71429"
     inkscape:document-units="px"
     inkscape:current-layer="svg2"
     width="1024px"
     height="1024px"
     inkscape:window-width="1280"
     inkscape:window-height="964"
     inkscape:window-x="-4"
     inkscape:window-y="-4"
     showguides="true"
     inkscape:guide-bbox="true">
    <sodipodi:guide
       orientation="vertical"
       position="512.14734"
       id="guide2377" />
    <sodipodi:guide
       orientation="horizontal"
       position="620.71429"
       id="guide2446" />
    <sodipodi:guide
       orientation="horizontal"
       position="527.85714"
       id="guide2456" />
  </sodipodi:namedview>
  <metadata
     id="metadata7">
    <rdf:RDF>
      <cc:Work
         rdf:about="">
        <dc:format>image/svg+xml</dc:format>
        <dc:type
           rdf:resource="http://purl.org/dc/dcmitype/StillImage" />
      </cc:Work>
    </rdf:RDF>
  </metadata>
  <g
     inkscape:groupmode="layer"
     id="layer2"
     inkscape:label="Crude sketch"
     style="display:inline">
    <path
       sodipodi:type="arc"
       style="fill:#fff6d5;stroke:#502d16"
       id="path2381"
       sodipodi:cx="512.14288"
       sodipodi:cy="874"
       sodipodi:rx="380.71429"
       sodipodi:ry="48.57143"
       d="M 892.85718 874 A 380.71429 48.57143 0 1 1  131.42859,874 A 380.71429 48.57143 0 1 1  892.85718 874 z"
       transform="translate(-0.1428833,0)" />
    <path
       transform="matrix(1.050624,0,0,0.999744,-26.069604,-122.6334)"
       d="M 892.85718 874 A 380.71429 48.57143 0 1 1  131.42859,874 A 380.71429 48.57143 0 1 1  892.85718 874 z"
       sodipodi:ry="48.57143"
       sodipodi:rx="380.71429"
       sodipodi:cy="874"
       sodipodi:cx="512.14288"
       id="path2383"
       style="fill:#fff6d5;stroke:#502d16"
       sodipodi:type="arc" />
    <path
       sodipodi:type="arc"
       style="fill:none;stroke:#99ff55"
       id="path4475"
       sodipodi:cx="512.14288"
       sodipodi:cy="874"
       sodipodi:rx="380.71429"
       sodipodi:ry="48.57143"
       d="M 892.85718 874 A 380.71429 48.57143 0 1 1  131.42859,874 A 380.71429 48.57143 0 1 1  892.85718 874 z"
       transform="matrix(1.050624,0,0,0.999744,-26.069604,-75.15623)" />
    <path
       transform="matrix(1.050624,0,0,0.999744,-26.069604,-291.32887)"
       d="M 892.85718 874 A 380.71429 48.57143 0 1 1  131.42859,874 A 380.71429 48.57143 0 1 1  892.85718 874 z"
       sodipodi:ry="48.57143"
       sodipodi:rx="380.71429"
       sodipodi:cy="874"
       sodipodi:cx="512.14288"
       id="path5448"
       style="fill:none;stroke:#b3ff80"
       sodipodi:type="arc" />
  </g>
  <g
     inkscape:label="Crown"
     inkscape:groupmode="layer"
     id="layer1" />
  <path
     sodipodi:type="arc"
     style="fill:#ffcc00;stroke:#502d16"
     id="path2389"
     sodipodi:cx="512.14734"
     sodipodi:cy="458.31458"
     sodipodi:rx="37.375645"
     sodipodi:ry="37.375645"
     d="M 549.52298 458.31458 A 37.375645 37.375645 0 1 1  474.77169,458.31458 A 37.375645 37.375645 0 1 1  549.52298 458.31458 z"
     transform="matrix(1.4533941,0,0,1.4533941,-232.20457,-207.79712)" />
  <path
     transform="matrix(1.0560877,0,0,1.0560876,11.274837,51.971981)"
     d="M 549.52298 458.31458 A 37.375645 37.375645 0 1 1  474.77169,458.31458 A 37.375645 37.375645 0 1 1  549.52298 458.31458 z"
     sodipodi:ry="37.375645"
     sodipodi:rx="37.375645"
     sodipodi:cy="458.31458"
     sodipodi:cx="512.14734"
     id="path2391"
     style="fill:#ffcc00;stroke:#502d16"
     sodipodi:type="arc" />
  <path
     sodipodi:type="arc"
     style="fill:#ffcc00;stroke:#502d16"
     id="path2393"
     sodipodi:cx="512.14734"
     sodipodi:cy="458.31458"
     sodipodi:rx="37.375645"
     sodipodi:ry="37.375645"
     d="M 549.52298 458.31458 A 37.375645 37.375645 0 1 1  474.77169,458.31458 A 37.375645 37.375645 0 1 1  549.52298 458.31458 z"
     transform="matrix(1.0667467,0,0,1.056017,-74.585173,52.004334)" />
  <g
     id="g2401">
    <path
       sodipodi:nodetypes="csc"
       id="path2395"
       d="M 504.06612,511.85266 C 505.07628,586.60395 470.78719,707.14886 450.52804,739.13698 C 431.33514,769.44156 399.01026,797.72583 346.48232,795.70552"
       style="fill:none;fill-rule:evenodd;stroke:#000000;stroke-width:1px;stroke-linecap:butt;stroke-linejoin:miter;stroke-opacity:1" />
    <path
       style="fill:none;fill-rule:evenodd;stroke:#000000;stroke-width:1px;stroke-linecap:butt;stroke-linejoin:miter;stroke-opacity:1"
       d="M 521.26508,510.84251 C 520.25492,585.5938 559.59477,706.13871 579.85392,738.12683 C 599.04682,768.43141 631.3717,796.71568 683.89964,794.69537"
       id="path2397"
       sodipodi:nodetypes="csc" />
  </g>
  <g
     id="g4457"
     transform="matrix(1.005865,0,0,0.9677348,-487.82851,-47.907012)">
    <path
       style="fill:none;fill-rule:evenodd;stroke:#000000;stroke-width:1;stroke-linecap:butt;stroke-linejoin:miter;stroke-miterlimit:4;stroke-dasharray:none;stroke-opacity:1"
       d="M 755.75576,654.5475 C 755.25976,692.33124 772.09592,736.08921 782.04329,752.2579 C 791.46713,767.57564 807.33885,781.87219 833.1304,780.851"
       id="path4459"
       sodipodi:nodetypes="csc" />
    <path
       sodipodi:nodetypes="csc"
       id="path4461"
       d="M 742.28487,651.99359 C 742.69332,689.78945 726.78653,750.73955 718.59488,766.91343 C 710.83437,782.23607 697.76403,796.53721 676.52473,795.5157"
       style="fill:none;fill-rule:evenodd;stroke:#000000;stroke-width:1;stroke-linecap:butt;stroke-linejoin:miter;stroke-miterlimit:4;stroke-dasharray:none;stroke-opacity:1" />
    <path
       sodipodi:type="arc"
       style="fill:#ffcc00;stroke:#502d16"
       id="path4463"
       sodipodi:cx="512.14734"
       sodipodi:cy="458.31458"
       sodipodi:rx="37.375645"
       sodipodi:ry="37.375645"
       d="M 549.52298 458.31458 A 37.375645 37.375645 0 1 1  474.77169,458.31458 A 37.375645 37.375645 0 1 1  549.52298 458.31458 z"
       transform="matrix(-1.0667467,0,0,1.056017,1293.3394,132.81654)" />
  </g>
  <g
     id="g4439">
    <path
       style="fill:none;fill-rule:evenodd;stroke:#000000;stroke-width:1;stroke-linecap:butt;stroke-linejoin:miter;stroke-miterlimit:4;stroke-dasharray:none;stroke-opacity:1"
       d="M 276.12021,654.5475 C 276.6162,692.33124 259.78004,736.08921 249.83267,752.2579 C 240.40884,767.57564 224.53712,781.87219 198.74557,780.851"
       id="path2407"
       sodipodi:nodetypes="csc" />
    <path
       sodipodi:nodetypes="csc"
       id="path2409"
       d="M 289.5911,651.99359 C 289.18265,689.78945 305.08944,750.73955 313.28109,766.91343 C 321.0416,782.23607 334.11194,796.53721 355.35124,795.5157"
       style="fill:none;fill-rule:evenodd;stroke:#000000;stroke-width:1;stroke-linecap:butt;stroke-linejoin:miter;stroke-opacity:1;stroke-miterlimit:4;stroke-dasharray:none" />
    <path
       sodipodi:type="arc"
       style="fill:#ffcc00;stroke:#502d16"
       id="path2411"
       sodipodi:cx="512.14734"
       sodipodi:cy="458.31458"
       sodipodi:rx="37.375645"
       sodipodi:ry="37.375645"
       d="M 549.52298 458.31458 A 37.375645 37.375645 0 1 1  474.77169,458.31458 A 37.375645 37.375645 0 1 1  549.52298 458.31458 z"
       transform="matrix(1.0667467,0,0,1.056017,-261.46339,132.81654)" />
  </g>
  <g
     transform="matrix(-1.005865,0,0,0.9677348,1529.6961,-47.907012)"
     id="g5450">
    <path
       sodipodi:nodetypes="csc"
       id="path5452"
       d="M 755.75576,654.5475 C 755.25976,692.33124 772.09592,736.08921 782.04329,752.2579 C 791.46713,767.57564 807.33885,781.87219 833.1304,780.851"
       style="fill:none;fill-rule:evenodd;stroke:#000000;stroke-width:1;stroke-linecap:butt;stroke-linejoin:miter;stroke-miterlimit:4;stroke-dasharray:none;stroke-opacity:1" />
    <path
       style="fill:none;fill-rule:evenodd;stroke:#000000;stroke-width:1;stroke-linecap:butt;stroke-linejoin:miter;stroke-miterlimit:4;stroke-dasharray:none;stroke-opacity:1"
       d="M 742.28487,651.99359 C 742.69332,689.78945 726.78653,750.73955 718.59488,766.91343 C 710.83437,782.23607 697.76403,796.53721 676.52473,795.5157"
       id="path5454"
       sodipodi:nodetypes="csc" />
    <path
       transform="matrix(-1.0667467,0,0,1.056017,1293.3394,132.81654)"
       d="M 549.52298 458.31458 A 37.375645 37.375645 0 1 1  474.77169,458.31458 A 37.375645 37.375645 0 1 1  549.52298 458.31458 z"
       sodipodi:ry="37.375645"
       sodipodi:rx="37.375645"
       sodipodi:cy="458.31458"
       sodipodi:cx="512.14734"
       id="path5456"
       style="fill:#ffcc00;stroke:#502d16"
       sodipodi:type="arc" />
  </g>
  <g
     id="g4444">
    <path
       sodipodi:nodetypes="csc"
       id="path2423"
       d="M 755.75576,654.5475 C 755.25976,692.33124 772.09592,736.08921 782.04329,752.2579 C 791.46713,767.57564 807.33885,781.87219 833.1304,780.851"
       style="fill:none;fill-rule:evenodd;stroke:#000000;stroke-width:1;stroke-linecap:butt;stroke-linejoin:miter;stroke-opacity:1;stroke-miterlimit:4;stroke-dasharray:none" />
    <path
       style="fill:none;fill-rule:evenodd;stroke:#000000;stroke-width:1;stroke-linecap:butt;stroke-linejoin:miter;stroke-opacity:1;stroke-miterlimit:4;stroke-dasharray:none"
       d="M 742.28487,651.99359 C 742.69332,689.78945 726.78653,750.73955 718.59488,766.91343 C 710.83437,782.23607 697.76403,796.53721 676.52473,795.5157"
       id="path2425"
       sodipodi:nodetypes="csc" />
    <path
       transform="matrix(-1.0667467,0,0,1.056017,1293.3394,132.81654)"
       d="M 549.52298 458.31458 A 37.375645 37.375645 0 1 1  474.77169,458.31458 A 37.375645 37.375645 0 1 1  549.52298 458.31458 z"
       sodipodi:ry="37.375645"
       sodipodi:rx="37.375645"
       sodipodi:cy="458.31458"
       sodipodi:cx="512.14734"
       id="path2427"
       style="fill:#ffcc00;stroke:#502d16"
       sodipodi:type="arc" />
  </g>
  <g
     id="g4423">
    <path
       id="path2387"
       d="M 131.42857,874.71429 C 131.42857,784 38.571429,489 38.571429,489"
       style="fill:none;fill-rule:evenodd;stroke:#000000;stroke-width:1px;stroke-linecap:butt;stroke-linejoin:miter;stroke-opacity:1;display:inline" />
    <path
       id="path2429"
       d="M 32.65625 414.09375 C 28.026708 414.08718 23.377646 414.86117 18.875 416.5 C 16.396084 417.40225 14.0705 418.54531 11.875 419.875 C 26.428675 451.66506 38.021557 490.10568 47.625 520.75 C 50.472482 520.37693 53.283876 519.69883 56.0625 518.6875 C 80.076612 509.94708 91.23487 479.98719 80.96875 451.78125 C 72.62753 428.86394 52.717597 414.12223 32.65625 414.09375 z "
       style="fill:#ffcc00;stroke:#502d16;stroke-width:1.34242451" />
    <path
       id="path2454"
       d="M 49.692647,507.2117 C 47.643269,507.35565 45.590003,507.74948 43.605187,508.39362 C 53.189392,536.60508 61.313477,564.33345 66.591087,583.6998 C 68.273893,583.39605 69.951158,582.93131 71.575647,582.27498 C 87.625152,575.79056 94.007639,554.13531 85.833716,533.90416 C 78.936971,516.83411 63.875331,506.21549 49.692647,507.2117 z "
       style="fill:#ffcc00;stroke:#502d16;stroke-width:0.94199288" />
    <path
       id="path2465"
       d="M 79.285714,575.42857 C 105,638.28571 127.85714,769.71429 197.14286,780.42857"
       style="fill:none;fill-rule:evenodd;stroke:#000000;stroke-width:1px;stroke-linecap:butt;stroke-linejoin:miter;stroke-opacity:1" />
  </g>
  <g
     id="g4429"
     transform="matrix(-1,0,0,1,1025.0499,1.0101525)">
    <path
       style="fill:none;fill-rule:evenodd;stroke:#000000;stroke-width:1px;stroke-linecap:butt;stroke-linejoin:miter;stroke-opacity:1;display:inline"
       d="M 131.42857,874.71429 C 131.42857,784 38.571429,489 38.571429,489"
       id="path4431" />
    <path
       style="fill:#ffcc00;stroke:#502d16;stroke-width:1.34242451"
       d="M 32.65625,414.09375 C 28.026708,414.08718 23.377646,414.86117 18.875,416.5 C 16.396084,417.40225 14.0705,418.54531 11.875,419.875 C 26.428675,451.66506 38.021557,490.10568 47.625,520.75 C 50.472482,520.37693 53.283876,519.69883 56.0625,518.6875 C 80.076612,509.94708 91.23487,479.98719 80.96875,451.78125 C 72.62753,428.86394 52.717597,414.12223 32.65625,414.09375 z "
       id="path4433" />
    <path
       style="fill:#ffcc00;stroke:#502d16;stroke-width:0.94199288"
       d="M 49.692647,507.2117 C 47.643269,507.35565 45.590003,507.74948 43.605187,508.39362 C 53.189392,536.60508 61.313477,564.33345 66.591087,583.6998 C 68.273893,583.39605 69.951158,582.93131 71.575647,582.27498 C 87.625152,575.79056 94.007639,554.13531 85.833716,533.90416 C 78.936971,516.83411 63.875331,506.21549 49.692647,507.2117 z "
       id="path4435" />
    <path
       style="fill:none;fill-rule:evenodd;stroke:#000000;stroke-width:1px;stroke-linecap:butt;stroke-linejoin:miter;stroke-opacity:1"
       d="M 79.285714,575.42857 C 105,638.28571 127.85714,769.71429 197.14286,780.42857"
       id="path4437" />
  </g>
  <path
     sodipodi:type="arc"
     style="fill:#00ff00;stroke:#502d16;stroke-width:1;stroke-miterlimit:4;stroke-dasharray:none"
     id="path4465"
     sodipodi:cx="507.09659"
     sodipodi:cy="848.23346"
     sodipodi:rx="47.477169"
     sodipodi:ry="46.467018"
     d="M 554.57376 848.23346 A 47.477169 46.467018 0 1 1  459.61942,848.23346 A 47.477169 46.467018 0 1 1  554.57376 848.23346 z"
     transform="translate(5.0507627,-2.0203051)" />
  <path
     sodipodi:type="arc"
     style="fill:#00ffff;stroke:#502d16;stroke-width:1;stroke-miterlimit:4;stroke-dasharray:none"
     id="path4467"
     sodipodi:cx="133.34013"
     sodipodi:cy="815.4035"
     sodipodi:rx="17.172594"
     sodipodi:ry="37.880722"
     d="M 150.51273 815.4035 A 17.172594 37.880722 0 1 1  116.16754,815.4035 A 17.172594 37.880722 0 1 1  150.51273 815.4035 z"
     transform="matrix(0.9652536,-0.2962929,0.2501423,1.3420015,-209.43536,-244.41222)" />
  <path
     transform="matrix(-0.9653972,-0.2933804,-0.2501795,1.32881,1236.81,-234.5492)"
     d="M 150.51273 815.4035 A 17.172594 37.880722 0 1 1  116.16754,815.4035 A 17.172594 37.880722 0 1 1  150.51273 815.4035 z"
     sodipodi:ry="37.880722"
     sodipodi:rx="17.172594"
     sodipodi:cy="815.4035"
     sodipodi:cx="133.34013"
     id="path4469"
     style="fill:#00ffff;stroke:#502d16;stroke-width:1;stroke-miterlimit:4;stroke-dasharray:none"
     sodipodi:type="arc" />
  <rect
     style="fill:#ff0000;stroke:#502d16;stroke-width:0.96445531;stroke-miterlimit:4;stroke-dasharray:none"
     id="rect4471"
     width="56.211388"
     height="56.802807"
     x="-314.57584"
     y="780.18683"
     transform="matrix(0.7540539,-0.6568125,0.5982084,0.8013405,0,0)" />
  <rect
     transform="matrix(-0.7540539,-0.6568125,-0.5982084,0.8013405,0,0)"
     y="102.84293"
     x="-1140.9655"
     height="56.802799"
     width="56.211388"
     id="rect5446"
     style="fill:#ff0000;stroke:#502d16;stroke-width:0.96445519;stroke-miterlimit:4;stroke-dasharray:none" />
</svg>
