<?xml version="1.0" encoding="UTF-8" standalone="no"?>
<!-- Created with Inkscape (http://www.inkscape.org/) -->

<svg
   xmlns:dc="http://purl.org/dc/elements/1.1/"
   xmlns:cc="http://creativecommons.org/ns#"
   xmlns:rdf="http://www.w3.org/1999/02/22-rdf-syntax-ns#"
   xmlns:svg="http://www.w3.org/2000/svg"
   xmlns="http://www.w3.org/2000/svg"
   xmlns:xlink="http://www.w3.org/1999/xlink"
   xmlns:sodipodi="http://sodipodi.sourceforge.net/DTD/sodipodi-0.dtd"
   xmlns:inkscape="http://www.inkscape.org/namespaces/inkscape"
   width="744.09448819"
   height="1052.3622047"
   id="svg2"
   version="1.1"
   inkscape:version="0.48.4 r9939"
   sodipodi:docname="SpiderLangLogo.svg">
  <defs
     id="defs4" />
  <sodipodi:namedview
     id="base"
     pagecolor="#ffffff"
     bordercolor="#666666"
     borderopacity="1.0"
     inkscape:pageopacity="0.0"
     inkscape:pageshadow="2"
     inkscape:zoom="1.979899"
     inkscape:cx="535.16916"
     inkscape:cy="589.56662"
     inkscape:document-units="px"
     inkscape:current-layer="layer1"
     showgrid="true"
     inkscape:window-width="1920"
     inkscape:window-height="1018"
     inkscape:window-x="-8"
     inkscape:window-y="-8"
     inkscape:window-maximized="1">
    <inkscape:grid
       type="xygrid"
       id="grid2985" />
  </sodipodi:namedview>
  <metadata
     id="metadata7">
    <rdf:RDF>
      <cc:Work
         rdf:about="">
        <dc:format>image/svg+xml</dc:format>
        <dc:type
           rdf:resource="http://purl.org/dc/dcmitype/StillImage" />
      </cc:Work>
    </rdf:RDF>
  </metadata>
  <g
     inkscape:label="Layer 1"
     inkscape:groupmode="layer"
     id="layer1">
    <path
       sodipodi:type="star"
       style="fill:none;stroke:#ff0000;stroke-width:0;stroke-miterlimit:4;stroke-opacity:1;stroke-dasharray:none;stroke-dashoffset:0"
       id="path2987"
       sodipodi:sides="8"
       sodipodi:cx="0"
       sodipodi:cy="372.04722"
       sodipodi:r1="320.70355"
       sodipodi:r2="296.29144"
       sodipodi:arg1="0.78539816"
       sodipodi:arg2="1.1780972"
       inkscape:flatsided="true"
       inkscape:rounded="0"
       inkscape:randomized="0"
       d="M 226.77166,598.81887 1.0895738e-6,692.75076 -226.77166,598.81887 -320.70355,372.04721 -226.77166,145.27555 -1.0895739e-6,51.343658 226.77166,145.27555 320.70355,372.04721 z" />
    <path
       style="fill:none;stroke:#ffcc00;stroke-width:8;stroke-miterlimit:4;stroke-opacity:1;stroke-dashoffset:0"
       d="m 453.65017,542.09727 10e-6,113.38583 -56.69292,56.69292 -56.69292,-10e-6 -56.69291,-56.69291 0,-113.38583 56.69291,-56.69291 56.69292,0 z"
       id="path2989"
       inkscape:connector-curvature="0"
       sodipodi:nodetypes="ccccccccc" />
    <path
       style="fill:none;stroke:#ffcc00;stroke-width:8;stroke-linecap:butt;stroke-linejoin:miter;stroke-miterlimit:4;stroke-opacity:1;stroke-dasharray:none"
       d="m 340.15748,485.43305 -56.69291,-56.69291 0,-170.07874"
       id="path3759"
       inkscape:connector-curvature="0"
       sodipodi:nodetypes="ccc" />
    <use
       x="0"
       y="0"
       xlink:href="#path3759"
       id="use3766"
       transform="matrix(-1,0,0,1,737.06048,0.04269112)"
       width="744.09448"
       height="1052.3622" />
    <use
       x="0"
       y="0"
       xlink:href="#path3759"
       id="use3774"
       transform="matrix(1,0,0,-1,-6.569125e-4,1197.6595)"
       width="744.09448"
       height="1052.3622" />
    <use
       x="0"
       y="0"
       xlink:href="#path3759"
       id="use3778"
       transform="translate(-56.697646,56.672697)"
       width="744.09448"
       height="1052.3622" />
    <use
       x="0"
       y="0"
       xlink:href="#path3759"
       id="use3782"
       transform="matrix(-1,0,0,1,794.42533,56.840777)"
       width="744.09448"
       height="1052.3622" />
    <use
       x="0"
       y="0"
       xlink:href="#path3759"
       id="use3784"
       transform="matrix(-1,0,0,-1,793.75216,1140.9839)"
       width="744.09448"
       height="1052.3622" />
    <use
       x="0"
       y="0"
       xlink:href="#path3759"
       id="use3786"
       transform="matrix(-1,0,0,-1,737.02751,1197.6709)"
       width="744.09448"
       height="1052.3622" />
    <use
       x="0"
       y="0"
       xlink:href="#path3759"
       id="use3788"
       transform="matrix(1,0,0,-1,-56.666537,1140.9789)"
       width="744.09448"
       height="1052.3622" />
  </g>
</svg>
