<?xml version="1.0" encoding="UTF-8" standalone="no"?>
<!-- Created with Inkscape (http://www.inkscape.org/) -->

<svg
   xmlns:dc="http://purl.org/dc/elements/1.1/"
   xmlns:cc="http://creativecommons.org/ns#"
   xmlns:rdf="http://www.w3.org/1999/02/22-rdf-syntax-ns#"
   xmlns:svg="http://www.w3.org/2000/svg"
   xmlns="http://www.w3.org/2000/svg"
   xmlns:sodipodi="http://sodipodi.sourceforge.net/DTD/sodipodi-0.dtd"
   xmlns:inkscape="http://www.inkscape.org/namespaces/inkscape"
   sodipodi:docname="Stampit-logo.svg"
   inkscape:version="0.91 r13725"
   version="1.1"
   id="svg2"
   viewBox="0 0 744.09448819 1052.3622047"
   height="297mm"
   width="210mm">
  <sodipodi:namedview
     inkscape:window-maximized="1"
     inkscape:window-y="-8"
     inkscape:window-x="1272"
     inkscape:window-height="1018"
     inkscape:window-width="1920"
     showgrid="false"
     inkscape:current-layer="layer1"
     inkscape:document-units="px"
     inkscape:cy="350.23269"
     inkscape:cx="285.3116"
     inkscape:zoom="5.6"
     inkscape:pageshadow="2"
     inkscape:pageopacity="0.0"
     borderopacity="1.0"
     bordercolor="#666666"
     pagecolor="#ffffff"
     id="base" />
  <defs
     id="defs4" />
  <metadata
     id="metadata7">
    <rdf:RDF>
      <cc:Work
         rdf:about="">
        <dc:format>image/svg+xml</dc:format>
        <dc:type
           rdf:resource="http://purl.org/dc/dcmitype/StillImage" />
        <dc:title />
      </cc:Work>
    </rdf:RDF>
  </metadata>
  <g
     id="layer1"
     inkscape:groupmode="layer"
     inkscape:label="Layer 1">
    <path
       style="fill:#ffffff;fill-opacity:1;stroke:#000000;stroke-width:1.04530692;stroke-miterlimit:4;stroke-dasharray:none;stroke-dashoffset:0;stroke-opacity:1"
       d="M 241.53906 357.33984 C 241.53907 358.86507 240.93397 360.32774 239.85547 361.40625 C 238.77696 362.48475 237.31625 363.08789 235.79102 363.08789 C 234.32603 363.08789 232.92199 362.52523 231.85742 361.52539 C 230.79271 362.52586 229.38932 363.08789 227.92383 363.08789 C 227.26881 363.08789 226.62796 362.97017 226.02148 362.75781 L 226.02148 363.07227 C 226.35108 363.2875 226.66074 363.53574 226.94336 363.81836 C 228.02186 364.89687 228.62695 366.35954 228.62695 367.88477 C 228.62695 369.41 228.02186 370.87266 226.94336 371.95117 C 225.86485 373.02967 224.40218 373.63673 222.87695 373.63672 L 222.87695 377.73047 C 224.40218 377.73047 225.86485 378.33555 226.94336 379.41406 C 228.02186 380.49256 228.62695 381.95524 228.62695 383.48047 C 228.62695 385.0057 228.02186 386.46837 226.94336 387.54688 C 225.86485 388.62538 224.40218 389.23047 222.87695 389.23047 L 222.87695 393.32422 C 224.40218 393.32422 225.86485 393.9293 226.94336 395.00781 C 228.02186 396.08631 228.62695 397.55094 228.62695 399.07617 C 228.62695 400.60142 228.02186 402.06408 226.94336 403.14258 C 225.86485 404.22109 224.40218 404.82422 222.87695 404.82422 L 222.87695 408.91797 C 224.40218 408.91797 225.86485 409.52502 226.94336 410.60352 C 228.02186 411.68201 228.62695 413.14467 228.62695 414.66992 C 228.62695 416.19515 228.02186 417.65783 226.94336 418.73633 C 225.86485 419.81484 224.40218 420.42187 222.87695 420.42188 L 222.87695 424.51367 C 224.40218 424.51367 225.86485 425.12073 226.94336 426.19922 C 228.02186 427.27773 228.62695 428.73844 228.62695 430.26367 C 228.62695 431.7889 228.02186 433.25157 226.94336 434.33008 C 225.86485 435.40858 224.40218 436.01567 222.87695 436.01562 L 222.87695 440.10742 C 224.40218 440.10742 225.86485 440.71446 226.94336 441.79297 C 228.02186 442.87147 228.62695 444.33412 228.62695 445.85938 C 228.62695 447.38461 228.02186 448.84532 226.94336 449.92383 C 225.86485 451.00233 224.40218 451.60934 222.87695 451.60938 L 222.87695 455.70312 C 224.40218 455.70312 225.86485 456.30822 226.94336 457.38672 C 228.02186 458.46522 228.62695 459.92793 228.62695 461.45312 C 228.62695 462.97839 228.02186 464.44298 226.94336 465.52148 C 225.86485 466.59999 224.40218 467.20508 222.87695 467.20508 L 222.87695 471.29883 C 224.40218 471.29882 225.86485 471.90196 226.94336 472.98047 C 228.02186 474.05897 228.62695 475.52359 228.62695 477.04883 C 228.62695 478.57406 228.02186 480.03673 226.94336 481.11523 C 225.86485 482.19374 224.40218 482.79883 222.87695 482.79883 L 222.87695 486.89258 C 224.40218 486.89258 225.86485 487.49768 226.94336 488.57617 C 228.02186 489.65468 228.62695 491.1193 228.62695 492.64453 C 228.62695 494.16977 228.02186 495.63047 226.94336 496.70898 C 225.86485 497.78748 224.40218 498.39453 222.87695 498.39453 L 222.87695 502.48633 C 224.40218 502.48632 225.86485 503.09336 226.94336 504.17188 C 228.02186 505.25038 228.62695 506.71305 228.62695 508.23828 C 228.62695 509.76351 228.02186 511.22619 226.94336 512.30469 C 225.86485 513.38319 224.40218 513.98828 222.87695 513.98828 L 222.87695 518.08008 C 224.40218 518.08008 225.86485 518.68714 226.94336 519.76562 C 228.02186 520.84412 228.62695 522.3068 228.62695 523.83203 C 228.62695 525.35728 228.02186 526.81994 226.94336 527.89844 C 225.86485 528.97695 224.40218 529.58398 222.87695 529.58398 L 222.87695 533.67578 C 224.40218 533.67577 225.86485 534.28283 226.94336 535.36133 C 228.02186 536.43984 228.62695 537.90054 228.62695 539.42578 C 228.62695 540.95101 228.02186 542.41564 226.94336 543.49414 C 225.86485 544.57265 224.40218 545.17773 222.87695 545.17773 L 222.87695 549.27148 C 224.40218 549.27148 225.86485 549.87658 226.94336 550.95508 C 228.02186 552.03358 228.62695 553.49625 228.62695 555.02148 C 228.62695 556.54672 228.02186 558.00938 226.94336 559.08789 C 225.86485 560.16639 224.40218 560.77148 222.87695 560.77148 L 222.87695 564.86523 C 224.40218 564.86522 225.86485 565.47033 226.94336 566.54883 C 228.02186 567.62734 228.62695 569.09196 228.62695 570.61719 C 228.62695 572.14242 228.02186 573.60509 226.94336 574.68359 C 225.86485 575.76209 224.40218 576.3672 222.87695 576.36719 L 222.87695 580.46094 C 224.40218 580.46094 225.86485 581.06603 226.94336 582.14453 C 228.02186 583.22303 228.62695 584.68571 228.62695 586.21094 C 228.62695 587.73619 228.02186 589.19884 226.94336 590.27734 C 225.86485 591.35585 224.40218 591.96289 222.87695 591.96289 L 222.87695 596.05469 C 224.40218 596.05469 225.86485 596.66173 226.94336 597.74023 C 228.02186 598.81873 228.62695 600.28141 228.62695 601.80664 C 228.62695 603.33187 228.02186 604.79259 226.94336 605.87109 C 225.86485 606.9496 224.40218 607.55664 222.87695 607.55664 L 222.87695 611.64844 C 224.40218 611.64844 225.86485 612.25548 226.94336 613.33398 C 228.02186 614.41248 228.62695 615.87515 228.62695 617.40039 C 228.62695 618.92562 228.02186 620.3883 226.94336 621.4668 C 225.86485 622.5453 224.40218 623.15039 222.87695 623.15039 L 222.87695 627.24414 C 224.40218 627.24413 225.86485 627.84923 226.94336 628.92773 C 228.02186 630.00624 228.62695 631.46891 228.62695 632.99414 C 228.62695 634.51937 228.02186 635.98399 226.94336 637.0625 C 225.86485 638.141 224.40218 638.7461 222.87695 638.74609 L 222.87695 642.83984 C 224.40218 642.83984 225.86485 643.44493 226.94336 644.52344 C 228.02186 645.60194 228.62695 647.06461 228.62695 648.58984 C 228.62695 650.11509 228.02186 651.57775 226.94336 652.65625 C 225.86485 653.73476 224.40218 654.33984 222.87695 654.33984 L 222.87695 658.43359 C 224.40218 658.43359 225.86485 659.04064 226.94336 660.11914 C 228.02186 661.19764 228.62695 662.66032 228.62695 664.18555 C 228.62695 665.71079 228.02186 667.1715 226.94336 668.25 C 225.86485 669.32851 224.40218 669.93555 222.87695 669.93555 L 222.87695 674.02734 C 224.40218 674.02734 225.86485 674.63439 226.94336 675.71289 C 228.02186 676.79139 228.62695 678.25406 228.62695 679.7793 C 228.62695 680.59209 228.4509 681.38466 228.12695 682.11328 C 229.09422 681.42505 230.25229 681.04297 231.45508 681.04297 C 232.98032 681.04297 234.44493 681.64806 235.52344 682.72656 C 236.60194 683.80507 237.20703 685.26968 237.20703 686.79492 L 241.30078 686.79492 C 241.30078 685.26968 241.90587 683.80507 242.98438 682.72656 C 244.06288 681.64806 245.5275 681.04297 247.05273 681.04297 C 248.57797 681.04297 250.04064 681.64806 251.11914 682.72656 C 252.19764 683.80507 252.80078 685.26968 252.80078 686.79492 L 256.89453 686.79492 C 256.89453 685.26968 257.49963 683.80507 258.57812 682.72656 C 259.65661 681.64806 261.12124 681.04297 262.64648 681.04297 C 264.17172 681.04297 265.63439 681.64806 266.71289 682.72656 C 267.7914 683.80507 268.39844 685.26968 268.39844 686.79492 L 272.49023 686.79492 C 272.49023 685.26968 273.09532 683.80507 274.17383 682.72656 C 275.25233 681.64806 276.71499 681.04297 278.24023 681.04297 C 279.76546 681.04297 281.22814 681.64806 282.30664 682.72656 C 283.38515 683.80507 283.9922 685.26968 283.99219 686.79492 L 288.08398 686.79492 C 288.08398 685.26968 288.69103 683.80507 289.76953 682.72656 C 290.84804 681.64806 292.31071 681.04297 293.83594 681.04297 C 295.36117 681.04297 296.82188 681.64806 297.90039 682.72656 C 298.97889 683.80507 299.58594 685.26968 299.58594 686.79492 L 303.67773 686.79492 C 303.67773 685.26968 304.28479 683.80507 305.36328 682.72656 C 306.44179 681.64806 307.90446 681.04297 309.42969 681.04297 C 310.95493 681.04297 312.41955 681.64806 313.49805 682.72656 C 314.57655 683.80507 315.18164 685.26968 315.18164 686.79492 L 319.27539 686.79492 C 319.27538 685.26968 319.87852 683.80507 320.95703 682.72656 C 322.03553 681.64806 323.49821 681.04297 325.02344 681.04297 C 326.54868 681.04297 328.0133 681.64806 329.0918 682.72656 C 330.17031 683.80507 330.77539 685.26968 330.77539 686.79492 L 334.86914 686.79492 C 334.86914 685.26968 335.47425 683.80507 336.55273 682.72656 C 337.63123 681.64806 339.0939 681.04297 340.61914 681.04297 C 342.14437 681.04297 343.60705 681.64806 344.68555 682.72656 C 345.76406 683.80507 346.36914 685.26968 346.36914 686.79492 L 350.46289 686.79492 C 350.46288 685.26968 351.06994 683.80507 352.14844 682.72656 C 353.22695 681.64806 354.68961 681.04297 356.21484 681.04297 C 357.74007 681.04297 359.20274 681.64806 360.28125 682.72656 C 361.35975 683.80507 361.96484 685.26968 361.96484 686.79492 L 366.05664 686.79492 C 366.05664 685.26968 366.6637 683.80507 367.74219 682.72656 C 368.8207 681.64806 370.28336 681.04297 371.80859 681.04297 C 373.33383 681.04297 374.79649 681.64806 375.875 682.72656 C 376.9535 683.80507 377.56055 685.26968 377.56055 686.79492 L 381.65234 686.79492 C 381.65233 685.26968 382.25743 683.80507 383.33594 682.72656 C 384.41444 681.64806 385.87711 681.04297 387.40234 681.04297 C 388.92758 681.04297 390.39025 681.64806 391.46875 682.72656 C 392.54726 683.80507 393.1543 685.26968 393.1543 686.79492 L 397.24805 686.79492 C 397.24805 685.26968 397.85314 683.80507 398.93164 682.72656 C 400.01013 681.64806 401.47282 681.04297 402.99805 681.04297 C 404.52329 681.04297 405.98595 681.64806 407.06445 682.72656 C 408.14296 683.80507 408.74805 685.26968 408.74805 686.79492 L 412.8418 686.79492 C 412.84179 685.26968 413.4469 683.80507 414.52539 682.72656 C 415.6039 681.64806 417.06852 681.04297 418.59375 681.04297 C 420.11898 681.04297 421.58165 681.64806 422.66016 682.72656 C 423.73866 683.80507 424.3418 685.26968 424.3418 686.79492 L 428.43555 686.79492 C 428.43555 685.26968 429.0426 683.80507 430.12109 682.72656 C 431.1996 681.64806 432.66227 681.04297 434.1875 681.04297 C 435.71274 681.04297 437.1754 681.64806 438.25391 682.72656 C 439.33241 683.80507 439.93945 685.26968 439.93945 686.79492 L 444.03125 686.79492 C 444.03125 685.26968 444.63829 683.80507 445.7168 682.72656 C 446.7953 681.64806 448.25602 681.04297 449.78125 681.04297 C 451.30649 681.04297 452.76916 681.64806 453.84766 682.72656 C 454.92617 683.80507 455.5332 685.26968 455.5332 686.79492 L 459.625 686.79492 C 459.625 685.26968 460.23205 683.80507 461.31055 682.72656 C 462.38904 681.64806 463.85171 681.04297 465.37695 681.04297 C 466.90218 681.04297 468.36487 681.64806 469.44336 682.72656 C 470.52187 683.80507 471.12695 685.26968 471.12695 686.79492 L 475.2207 686.79492 C 475.22069 685.26968 475.8258 683.80507 476.9043 682.72656 C 477.98281 681.64806 479.44547 681.04297 480.9707 681.04297 C 482.49593 681.04297 483.96055 681.64806 485.03906 682.72656 C 486.11756 683.80507 486.72267 685.26968 486.72266 686.79492 L 490.81641 686.79492 C 490.81641 685.26968 491.41955 683.80507 492.49805 682.72656 C 493.57654 681.64806 495.04118 681.04297 496.56641 681.04297 C 498.09165 681.04297 499.5543 681.64806 500.63281 682.72656 C 501.71131 683.80507 502.31641 685.26968 502.31641 686.79492 L 506.41016 686.79492 C 506.41016 685.26968 507.01719 683.80507 508.0957 682.72656 C 509.1742 681.64806 510.63687 681.04297 512.16211 681.04297 C 513.68735 681.04297 515.14806 681.64806 516.22656 682.72656 C 517.30507 683.80507 517.91211 685.26968 517.91211 686.79492 L 522.00391 686.79492 C 522.00391 685.26968 522.61095 683.80507 523.68945 682.72656 C 524.76794 681.64806 526.23062 681.04297 527.75586 681.04297 C 529.28109 681.04297 530.74377 681.64806 531.82227 682.72656 C 532.90078 683.80507 533.50586 685.26968 533.50586 686.79492 L 537.59766 686.79492 C 537.59765 685.26968 538.2047 683.80507 539.2832 682.72656 C 540.36171 681.64806 541.82438 681.04297 543.34961 681.04297 C 544.69081 681.04297 545.98398 681.51298 547.00977 682.35938 C 546.7288 681.67381 546.58008 680.93499 546.58008 680.17969 C 546.58008 678.65446 547.18517 677.18983 548.26367 676.11133 C 549.34217 675.03283 550.80485 674.42773 552.33008 674.42773 L 552.33008 670.33398 C 550.80485 670.33398 549.34217 669.73084 548.26367 668.65234 C 547.18517 667.57384 546.58008 666.10921 546.58008 664.58398 C 546.58008 663.05873 547.18517 661.59608 548.26367 660.51758 C 549.34217 659.43907 550.80485 658.83398 552.33008 658.83398 L 552.33008 654.74023 C 550.80485 654.74025 549.34217 654.13515 548.26367 653.05664 C 547.18517 651.97814 546.58008 650.51547 546.58008 648.99023 C 546.58008 647.465 547.18517 646.00233 548.26367 644.92383 C 549.34217 643.84532 550.80485 643.23828 552.33008 643.23828 L 552.33008 639.14648 C 550.80485 639.14648 549.34217 638.53944 548.26367 637.46094 C 547.18517 636.38244 546.58008 634.91976 546.58008 633.39453 C 546.58008 631.86929 547.18517 630.40667 548.26367 629.32812 C 549.34217 628.24964 550.80485 627.64453 552.33008 627.64453 L 552.33008 623.55273 C 550.80485 623.55274 549.34217 622.94569 548.26367 621.86719 C 547.18517 620.78868 546.58008 619.32601 546.58008 617.80078 C 546.58008 616.27555 547.18517 614.81288 548.26367 613.73438 C 549.34217 612.65588 550.80485 612.04882 552.33008 612.04883 L 552.33008 607.95703 C 550.80485 607.95703 549.34217 607.34999 548.26367 606.27148 C 547.18517 605.19298 546.58008 603.73226 546.58008 602.20703 C 546.58008 600.68179 547.18517 599.21716 548.26367 598.13867 C 549.34217 597.06017 550.80485 596.45508 552.33008 596.45508 L 552.33008 592.36133 C 550.80485 592.36133 549.34217 591.75624 548.26367 590.67773 C 547.18517 589.59923 546.58008 588.13459 546.58008 586.60938 C 546.58008 585.08415 547.18517 583.62342 548.26367 582.54492 C 549.34217 581.46641 550.80485 580.86133 552.33008 580.86133 L 552.33008 576.76758 C 550.80485 576.76758 549.34217 576.16248 548.26367 575.08398 C 547.18517 574.00548 546.58008 572.54089 546.58008 571.01562 C 546.58008 569.49041 547.18517 568.02772 548.26367 566.94922 C 549.34217 565.87072 550.80485 565.26367 552.33008 565.26367 L 552.33008 561.17188 C 550.80485 561.17188 549.34217 560.56678 548.26367 559.48828 C 547.18517 558.40977 546.58008 556.94707 546.58008 555.42188 C 546.58008 553.89665 547.18517 552.43398 548.26367 551.35547 C 549.34217 550.27697 550.80485 549.66991 552.33008 549.66992 L 552.33008 545.57812 C 550.80485 545.57812 549.34217 544.97109 548.26367 543.89258 C 547.18517 542.81408 546.58008 541.35338 546.58008 539.82812 C 546.58008 538.30288 547.18517 536.84022 548.26367 535.76172 C 549.34217 534.68322 550.80485 534.07617 552.33008 534.07617 L 552.33008 529.98438 C 550.80485 529.98438 549.34217 529.37734 548.26367 528.29883 C 547.18517 527.22033 546.58008 525.75766 546.58008 524.23242 C 546.58008 522.70718 547.18517 521.24256 548.26367 520.16406 C 549.34217 519.08555 550.80485 518.48242 552.33008 518.48242 L 552.33008 514.38867 C 550.80485 514.38867 549.34217 513.78358 548.26367 512.70508 C 547.18517 511.62658 546.58008 510.16391 546.58008 508.63867 C 546.58008 507.11344 547.18517 505.64882 548.26367 504.57031 C 549.34217 503.49181 550.80485 502.88672 552.33008 502.88672 L 552.33008 498.79297 C 550.80485 498.79297 549.34217 498.18786 548.26367 497.10938 C 547.18517 496.03087 546.58008 494.5682 546.58008 493.04297 C 546.58008 491.51774 547.18517 490.05507 548.26367 488.97656 C 549.34217 487.89806 550.80485 487.29296 552.33008 487.29297 L 552.33008 483.19922 C 550.80485 483.19922 549.34217 482.59218 548.26367 481.51367 C 547.18517 480.43517 546.58008 478.9725 546.58008 477.44727 C 546.58008 475.92203 547.18517 474.46131 548.26367 473.38281 C 549.34217 472.30431 550.80485 471.69727 552.33008 471.69727 L 552.33008 467.60547 C 550.80485 467.60547 549.34217 466.99842 548.26367 465.91992 C 547.18517 464.84142 546.58008 463.37876 546.58008 461.85352 C 546.58008 460.32828 547.18517 458.86561 548.26367 457.78711 C 549.34217 456.7086 550.80485 456.10156 552.33008 456.10156 L 552.33008 452.00977 C 550.80485 452.00978 549.34217 451.40467 548.26367 450.32617 C 547.18517 449.24766 546.58008 447.785 546.58008 446.25977 C 546.58008 444.73454 547.18517 443.27187 548.26367 442.19336 C 549.34217 441.11486 550.80485 440.50781 552.33008 440.50781 L 552.33008 436.41406 C 550.80485 436.41406 549.34217 435.80897 548.26367 434.73047 C 547.18517 433.65197 546.58008 432.19125 546.58008 430.66602 C 546.58008 429.14079 547.18517 427.67617 548.26367 426.59766 C 549.34217 425.51916 550.80485 424.91405 552.33008 424.91406 L 552.33008 420.82031 C 550.80485 420.82031 549.34217 420.21523 548.26367 419.13672 C 547.18517 418.05822 546.58008 416.59359 546.58008 415.06836 C 546.58008 413.54312 547.18517 412.08045 548.26367 411.00195 C 549.34217 409.92344 550.80485 409.32031 552.33008 409.32031 L 552.33008 405.22656 C 550.80485 405.22656 549.34217 404.61952 548.26367 403.54102 C 547.18517 402.46252 546.58008 400.99985 546.58008 399.47461 C 546.58008 397.94937 547.18517 396.4867 548.26367 395.4082 C 549.34217 394.32969 550.80485 393.72266 552.33008 393.72266 L 552.33008 389.63086 C 550.80485 389.63087 549.34217 389.02381 548.26367 387.94531 C 547.18517 386.8668 546.58008 385.40609 546.58008 383.88086 C 546.58008 382.35563 547.18517 380.89296 548.26367 379.81445 C 549.34217 378.73595 550.80485 378.12891 552.33008 378.12891 L 552.33008 374.03711 C 550.80485 374.03711 549.34217 373.43006 548.26367 372.35156 C 547.18517 371.27306 546.58008 369.8104 546.58008 368.28516 C 546.58008 366.75993 547.18517 365.29921 548.26367 364.2207 C 548.83181 363.65256 549.50784 363.2183 550.24219 362.93164 L 550.24219 362.48242 C 549.45296 362.87409 548.57917 363.08789 547.68164 363.08789 C 546.1564 363.08789 544.69374 362.48475 543.61523 361.40625 C 542.53673 360.32774 541.93358 358.86507 541.93359 357.33984 L 537.83984 357.33984 C 537.83984 358.86507 537.23476 360.32774 536.15625 361.40625 C 535.07775 362.48475 533.61312 363.08789 532.08789 363.08789 C 530.56265 363.08789 529.09998 362.48475 528.02148 361.40625 C 526.94297 360.32774 526.33594 358.86507 526.33594 357.33984 L 522.24414 357.33984 C 522.24414 358.86507 521.6371 360.32774 520.55859 361.40625 C 519.4801 362.48475 518.01938 363.08789 516.49414 363.08789 C 514.9689 363.08789 513.50623 362.48475 512.42773 361.40625 C 511.34922 360.32774 510.74219 358.86507 510.74219 357.33984 L 506.65039 357.33984 C 506.6504 358.86507 506.04334 360.32774 504.96484 361.40625 C 503.88633 362.48475 502.42367 363.08789 500.89844 363.08789 C 499.37321 363.08789 497.91248 362.48475 496.83398 361.40625 C 495.75547 360.32774 495.14844 358.86507 495.14844 357.33984 L 491.05664 357.33984 C 491.05664 358.86507 490.44959 360.32774 489.37109 361.40625 C 488.29259 362.48475 486.82993 363.08789 485.30469 363.08789 C 483.77946 363.08789 482.31484 362.48475 481.23633 361.40625 C 480.15783 360.32774 479.55273 358.86507 479.55273 357.33984 L 475.45898 357.33984 C 475.45898 358.86507 474.85585 360.32774 473.77734 361.40625 C 472.69884 362.48475 471.23617 363.08789 469.71094 363.08789 C 468.18571 363.08789 466.72108 362.48475 465.64258 361.40625 C 464.56408 360.32774 463.95897 358.86507 463.95898 357.33984 L 459.86523 357.33984 C 459.86523 358.86507 459.26015 360.32774 458.18164 361.40625 C 457.10314 362.48475 455.64046 363.08789 454.11523 363.08789 C 452.58998 363.08789 451.12733 362.48475 450.04883 361.40625 C 448.97032 360.32774 448.36523 358.86507 448.36523 357.33984 L 444.27148 357.33984 C 444.27148 358.86507 443.66444 360.32774 442.58594 361.40625 C 441.50743 362.48475 440.04476 363.08789 438.51953 363.08789 C 436.9943 363.08789 435.53163 362.48475 434.45312 361.40625 C 433.37462 360.32774 432.76953 358.86507 432.76953 357.33984 L 428.67773 357.33984 C 428.67773 358.86507 428.07069 360.32774 426.99219 361.40625 C 425.91369 362.48475 424.45102 363.08789 422.92578 363.08789 C 421.40055 363.08789 419.93785 362.48475 418.85938 361.40625 C 417.78089 360.32774 417.17383 358.86507 417.17383 357.33984 L 413.08203 357.33984 C 413.08203 358.86507 412.47498 360.32774 411.39648 361.40625 C 410.31798 362.48475 408.85726 363.08789 407.33203 363.08789 C 405.8068 363.08789 404.34413 362.48475 403.26562 361.40625 C 402.18712 360.32774 401.58007 358.86507 401.58008 357.33984 L 397.48633 357.33984 C 397.48633 358.86507 396.88124 360.32774 395.80273 361.40625 C 394.72423 362.48475 393.26157 363.08789 391.73633 363.08789 C 390.2111 363.08789 388.74842 362.48475 387.66992 361.40625 C 386.59141 360.32774 385.98633 358.86507 385.98633 357.33984 L 381.89258 357.33984 C 381.89258 358.86507 381.28748 360.32774 380.20898 361.40625 C 379.13047 362.48475 377.66589 363.08789 376.14062 363.08789 C 374.61539 363.08789 373.15273 362.48475 372.07422 361.40625 C 370.99572 360.32774 370.39065 358.86507 370.39062 357.33984 L 366.29688 357.33984 C 366.29688 358.86507 365.69178 360.32774 364.61328 361.40625 C 363.53478 362.48475 362.07208 363.08789 360.54688 363.08789 C 359.02164 363.08789 357.55898 362.48475 356.48047 361.40625 C 355.40197 360.32774 354.79492 358.86507 354.79492 357.33984 L 350.70312 357.33984 C 350.70312 358.86507 350.09608 360.32774 349.01758 361.40625 C 347.93908 362.48475 346.47838 363.08789 344.95312 363.08789 C 343.42789 363.08789 341.96522 362.48475 340.88672 361.40625 C 339.80822 360.32774 339.20116 358.86507 339.20117 357.33984 L 335.10938 357.33984 C 335.10938 358.86507 334.50234 360.32774 333.42383 361.40625 C 332.34533 362.48475 330.88266 363.08789 329.35742 363.08789 C 327.83219 363.08789 326.36952 362.48475 325.29102 361.40625 C 324.21251 360.32774 323.60742 358.86507 323.60742 357.33984 L 319.51367 357.33984 C 319.51367 358.86507 318.90857 360.32774 317.83008 361.40625 C 316.75157 362.48475 315.2889 363.08789 313.76367 363.08789 C 312.23843 363.08789 310.77382 362.48475 309.69531 361.40625 C 308.61681 360.32774 308.01172 358.86507 308.01172 357.33984 L 303.91797 357.33984 C 303.91798 358.86507 303.31287 360.32774 302.23438 361.40625 C 301.15587 362.48475 299.6932 363.08789 298.16797 363.08789 C 296.64274 363.08789 295.18007 362.48475 294.10156 361.40625 C 293.02306 360.32774 292.41797 358.86507 292.41797 357.33984 L 288.32422 357.33984 C 288.32422 358.86507 287.71717 360.32774 286.63867 361.40625 C 285.56017 362.48475 284.0975 363.08789 282.57227 363.08789 C 281.04702 363.08789 279.58631 362.48475 278.50781 361.40625 C 277.42931 360.32774 276.82227 358.86507 276.82227 357.33984 L 272.73047 357.33984 C 272.73048 358.86507 272.12343 360.32774 271.04492 361.40625 C 269.96642 362.48475 268.50376 363.08789 266.97852 363.08789 C 265.45328 363.08789 263.99061 362.48475 262.91211 361.40625 C 261.8336 360.32774 261.22656 358.86507 261.22656 357.33984 L 257.13477 357.33984 C 257.13477 358.86507 256.52966 360.32774 255.45117 361.40625 C 254.37267 362.48475 252.91 363.08789 251.38477 363.08789 C 249.85953 363.08789 248.39687 362.48475 247.31836 361.40625 C 246.23986 360.32774 245.63281 358.86507 245.63281 357.33984 L 241.53906 357.33984 z "
       id="path4880" />
    <g
       transform="matrix(0.48752834,0,0,0.48752834,233.57143,368.79078)"
       id="logo">
      <rect
         style="fill:#f7df1e"
         id="background"
         x="0"
         y="0"
         width="630"
         height="630" />
      <path
         inkscape:connector-curvature="0"
         id="j"
         d="m 165.65,526.47375 48.2125,-29.1775 C 223.16375,513.7875 231.625,527.74 251.92,527.74 c 19.45375,0 31.71875,-7.60975 31.71875,-37.21 l 0,-201.3 59.20375,0 0,202.1375 c 0,61.32 -35.94375,89.23125 -88.385,89.23125 -47.36125,0 -74.8525,-24.52875 -88.8075,-54.13" />
      <path
         inkscape:connector-curvature="0"
         id="s"
         d="m 375,520.13 48.20625,-27.91125 c 12.69,20.72375 29.1825,35.9475 58.36125,35.9475 24.53125,0 40.17375,-12.26475 40.17375,-29.18125 0,-20.29875 -16.06875,-27.48875 -43.135,-39.32625 l -14.7975,-6.3475 c -42.715,-18.18125 -71.05,-41.0175 -71.05,-89.2275 0,-44.40375 33.83125,-78.2375 86.695,-78.2375 37.6375,0 64.7025,13.11125 84.15375,47.36625 l -46.09625,29.60125 c -10.15,-18.1825 -21.1425,-25.37125 -38.0575,-25.37125 -17.33875,0 -28.335,10.995 -28.335,25.37125 0,17.7625 10.99625,24.9525 36.3675,35.94875 l 14.8,6.3425 c 50.325,21.56875 78.66,43.5575 78.66,93.03375 0,53.2875 -41.86625,82.465 -98.11,82.465 -54.97625,0 -90.5,-26.2175 -107.83625,-60.47375" />
    </g>
    <g
       transform="translate(-10.101525,2.0203051)"
       id="g4179">
      <rect
         style="fill:#fffff0;fill-opacity:0;stroke:#263674;stroke-width:6.43196392;stroke-miterlimit:4;stroke-dasharray:none;stroke-dashoffset:0;stroke-opacity:1"
         id="rect3352"
         width="602.99658"
         height="241.19864"
         x="-70.15052"
         y="357.25839"
         rx="80.399551"
         ry="80.399551"
         transform="matrix(0.94172847,-0.33637403,0.33637403,0.94172847,0,0)" />
      <text
         xml:space="preserve"
         style="font-style:normal;font-variant:normal;font-weight:bold;font-stretch:normal;font-size:144.7191925px;line-height:125%;font-family:Tahoma;-inkscape-font-specification:'Tahoma Bold';letter-spacing:0px;word-spacing:0px;fill:#263674;fill-opacity:1;stroke:none;stroke-width:1px;stroke-linecap:butt;stroke-linejoin:miter;stroke-opacity:1"
         x="-24.889729"
         y="522.37305"
         id="text4154"
         sodipodi:linespacing="125%"
         transform="matrix(0.94172847,-0.33637403,0.33637403,0.94172847,0,0)"><tspan
           sodipodi:role="line"
           id="tspan4156"
           x="-24.889729"
           y="522.37305"
           style="font-style:normal;font-variant:normal;font-weight:bold;font-stretch:normal;font-size:137.5px;font-family:Arial;-inkscape-font-specification:'Arial Bold'">Stampit</tspan></text>
      <rect
         ry="60.29966"
         rx="60.29966"
         y="376.78397"
         x="-50.050636"
         height="200.99887"
         width="562.79681"
         id="rect4158"
         style="fill:none;fill-opacity:1;stroke:#263674;stroke-width:6.43196392;stroke-miterlimit:4;stroke-dasharray:none;stroke-dashoffset:0;stroke-opacity:1"
         transform="matrix(0.94172847,-0.33637403,0.33637403,0.94172847,0,0)" />
    </g>
  </g>
</svg>
