<?xml version="1.0" encoding="UTF-8" standalone="no"?>
<!-- Created with Inkscape (http://www.inkscape.org/) -->

<svg
   xmlns:dc="http://purl.org/dc/elements/1.1/"
   xmlns:cc="http://creativecommons.org/ns#"
   xmlns:rdf="http://www.w3.org/1999/02/22-rdf-syntax-ns#"
   xmlns:svg="http://www.w3.org/2000/svg"
   xmlns="http://www.w3.org/2000/svg"
   xmlns:sodipodi="http://sodipodi.sourceforge.net/DTD/sodipodi-0.dtd"
   xmlns:inkscape="http://www.inkscape.org/namespaces/inkscape"
   width="744.09448819"
   height="1052.3622047"
   id="svg2816"
   version="1.1"
   inkscape:version="0.47 r22583"
   sodipodi:docname="New document 1">
  <defs
     id="defs2818">
    <inkscape:perspective
       sodipodi:type="inkscape:persp3d"
       inkscape:vp_x="0 : 526.18109 : 1"
       inkscape:vp_y="0 : 1000 : 0"
       inkscape:vp_z="744.09448 : 526.18109 : 1"
       inkscape:persp3d-origin="372.04724 : 350.78739 : 1"
       id="perspective2824" />
    <inkscape:perspective
       id="perspective2820"
       inkscape:persp3d-origin="0.5 : 0.33333333 : 1"
       inkscape:vp_z="1 : 0.5 : 1"
       inkscape:vp_y="0 : 1000 : 0"
       inkscape:vp_x="0 : 0.5 : 1"
       sodipodi:type="inkscape:persp3d" />
  </defs>
  <sodipodi:namedview
     id="base"
     pagecolor="#ffffff"
     bordercolor="#ffffff"
     borderopacity="0.0"
     inkscape:pageopacity="0.0"
     inkscape:pageshadow="0"
     inkscape:zoom="0.69589844"
     inkscape:cx="350"
     inkscape:cy="520"
     inkscape:document-units="px"
     inkscape:current-layer="layer1"
     showgrid="false"
     inkscape:window-width="1024"
     inkscape:window-height="712"
     inkscape:window-x="-4"
     inkscape:window-y="-4"
     inkscape:window-maximized="1" />
  <metadata
     id="metadata2821">
    <rdf:RDF>
      <cc:Work
         rdf:about="">
        <dc:format>image/svg+xml</dc:format>
        <dc:type
           rdf:resource="http://purl.org/dc/dcmitype/StillImage" />
        <dc:title></dc:title>
      </cc:Work>
    </rdf:RDF>
  </metadata>
  <g
     inkscape:label="Layer 1"
     inkscape:groupmode="layer"
     id="layer1">
    <path
       style="fill:#000000"
       d="m 273.14625,619.45408 c -8.95389,-1.30093 -19.96512,-4.26481 -29.47564,-7.93392 -6.71273,-2.58973 -8.06472,-3.42984 -6.5,-4.03901 1.0866,-0.42303 7.37564,-3.02687 13.97564,-5.78632 l 12,-5.01717 5.64589,1.33162 c 20.01285,4.72017 44.71281,1.87762 64.57887,-7.43193 29.22463,-13.69512 50.00507,-38.92159 57.42888,-69.71591 l 2.23586,-9.27445 2.44592,2.24136 c 1.34525,1.23275 5.06865,5.51576 8.2742,9.51781 l 5.82831,7.27645 -2.59387,7.22355 c -15.44614,43.01518 -53.71165,74.49906 -98.65753,81.17288 -11.21377,1.66509 -25.50437,1.84177 -35.18652,0.43504 z"
       id="path2844" />
    <path
       style="fill:#000000"
       d="m 161.14625,609.19952 c -11.14497,-1.60521 -17.26197,-2.99878 -29.83435,-6.79684 l -9.83435,-2.97092 0.64182,-5.18102 c 2.8993,-23.40423 10.40718,-46.1192 21.63763,-65.46435 4.82038,-8.3034 15.99721,-24.44206 16.54675,-23.89251 0.11786,0.11786 0.92902,4.70563 1.80258,10.19506 0.87355,5.48942 2.04866,11.40195 2.61135,13.13896 0.89319,2.75724 0.63765,3.78457 -2.01284,8.09217 -5.43904,8.83956 -11.83394,23.52562 -14.97866,34.39886 -2.65443,9.17804 -3.73369,14.84287 -2.82992,14.85381 0.1375,0.002 4.82572,0.89144 10.41828,1.97728 37.20134,7.22296 75.11789,0.0347 107.68422,-20.41477 l 8.85252,-5.55879 7.27982,6.74662 c 4.00389,3.71065 7.04649,7.14029 6.76133,7.62144 -1.06674,1.79985 -18.91644,12.71747 -28.65088,17.52406 -21.98764,10.8569 -43.91933,16.06602 -70.0953,16.64875 -10.67622,0.23768 -20.34788,-0.10374 -26,-0.91781 z"
       id="path2842" />
    <path
       style="fill:#000000"
       d="m 380.14625,609.65639 c -10.88666,-1.41283 -20.5004,-3.25679 -20.4742,-3.92703 0.0142,-0.36281 2.32204,-2.21793 5.12858,-4.1225 2.80654,-1.90457 7.28537,-5.42517 9.95295,-7.82355 l 4.85014,-4.3607 11.27128,0.6753 c 12.02271,0.72032 26.0376,-0.42207 39.06678,-3.18442 l 7.79552,-1.65276 -0.66539,-3.09551 C 433.95382,567.6592 426.6374,548.91976 419.3768,536.84296 406.16492,514.86721 384.82029,494.258 363.14625,482.5498 c -4.39999,-2.37685 -8.15434,-4.43656 -8.34298,-4.57713 -0.57653,-0.42963 2.12756,-18.84556 2.89878,-19.74177 0.89539,-1.04051 15.93698,6.42838 25.79415,12.80805 36.34312,23.52169 62.30715,60.5089 72.5999,103.42265 1.37085,5.71554 2.7889,13.66319 3.15121,17.66144 l 0.65875,7.26954 -9.3799,3.00444 c -15.95188,5.10947 -29.55463,7.29277 -47.87991,7.68493 -9.075,0.19421 -19.2,0.003 -22.5,-0.42556 z"
       id="path2840" />
    <path
       style="fill:#000000"
       d="m 309.36442,585.17861 c -27.49966,-17.26481 -47.71749,-39.36114 -62.22327,-68.00456 -6.54854,-12.9309 -14.3809,-35.15623 -12.88395,-36.55989 1.2444,-1.16683 15.14121,-6.04445 17.22126,-6.04445 1.26487,0 2.06023,1.50428 3.04021,5.75 0.72997,3.1625 2.90015,9.8 4.82266,14.75 13.41444,34.53908 40.48774,63.86902 74.00611,80.17476 6.75115,3.28424 9.08281,4.86268 8.13193,5.50501 -4.78398,3.23165 -19.82994,9.81853 -22.43052,9.81973 -0.60357,2.7e-4 -4.96157,-2.4255 -9.68443,-5.3906 z"
       id="path2838" />
    <path
       style="fill:#000000"
       d="m 195.41262,576.81971 c -15.11127,-18.67963 -24.02204,-37.62169 -27.87255,-59.25 -1.71475,-9.63181 -1.71771,-32.34277 -0.005,-42 5.15847,-29.09425 20.47486,-55.59287 42.77846,-74.0103 8.4157,-6.94935 20.07331,-14.5829 20.94268,-13.71353 0.27072,0.27072 -0.44829,4.17581 -1.59779,8.67797 -1.14951,4.50217 -2.49379,10.31487 -2.98729,12.91711 -0.78326,4.13011 -2.02498,5.8685 -9.77154,13.68005 -10.12347,10.2084 -16.87186,19.90974 -21.86596,31.43401 -17.31143,39.94746 -8.66979,84.93667 22.26471,115.91231 4.61256,4.61869 8.26539,8.5014 8.11742,8.62825 -0.8145,0.69821 -18.98411,4.47413 -21.52938,4.47413 -2.51347,0 -3.9177,-1.11863 -8.4733,-6.75 z"
       id="path2836" />
    <path
       style="fill:#000000"
       d="m 301.67803,547.75528 -7.46821,-6.85573 4.5982,-5.41492 c 14.82641,-17.4598 26.8828,-43.51627 31.50408,-68.08716 3.00938,-16.00052 2.36363,-44.46654 -1.35337,-59.66 l -0.57058,-2.33224 5.37905,2.6637 c 2.95848,1.46503 8.16282,4.53954 11.5652,6.83224 l 6.18617,4.16854 0.70437,6.47448 c 1.16813,10.73709 -0.25608,37.40468 -2.59155,48.52552 -2.7349,13.02281 -7.97571,28.63496 -13.59498,40.49886 -4.73343,9.99364 -16.7203,28.54622 -23.11223,35.77179 l -3.77793,4.27065 -7.46822,-6.85573 z"
       id="path2834" />
    <path
       style="fill:#000000"
       d="m 191.22468,496.81971 c 0.15314,-2.0625 0.52391,-7.16658 0.82393,-11.3424 0.30002,-4.17582 0.89473,-8.53581 1.32157,-9.68887 1.74086,-4.70271 25.54157,-17.38963 44.27607,-23.60126 20.07902,-6.65742 38.90019,-9.22303 60.5,-8.24707 13.04934,0.58962 27.71826,2.51453 29.01061,3.80688 0.52166,0.52165 -1.35144,18.95219 -1.9946,19.62618 -0.15927,0.1669 -4.05303,-0.37629 -8.6528,-1.20708 -40.64496,-7.34116 -86.23781,4.0386 -117.61824,29.35694 -3.44027,2.77567 -6.63527,5.04668 -7.1,5.04668 -0.46473,0 -0.71967,-1.6875 -0.56654,-3.75 z"
       id="path2832" />
    <path
       style="fill:#000000"
       d="m 408.90195,484.37589 c -2.33437,-2.3684 -7.35139,-6.55618 -11.14891,-9.30618 -6.71495,-4.86265 -6.99037,-5.23562 -10.02641,-13.57714 -11.73118,-32.23152 -38.66596,-56.56487 -72.58038,-65.57038 -8.75345,-2.32436 -11.86982,-2.65073 -25,-2.61819 -9.70318,0.024 -17.29529,0.56975 -21.5,1.54536 -3.57499,0.8295 -6.65645,1.36197 -6.84767,1.18326 -0.47477,-0.4437 3.05337,-9.73585 6.29529,-16.58003 2.63908,-5.5715 2.7029,-5.6222 7.85654,-6.24131 8.94497,-1.07457 23.82452,-0.69375 33.36747,0.854 52.22258,8.46987 93.12878,48.55946 102.82801,100.77524 0.89605,4.82395 1.48771,9.91173 1.31477,11.30618 -0.3097,2.4974 -0.37797,2.47088 -4.55871,-1.77081 z"
       id="path2830" />
    <path
       style="fill:#000000"
       d="m 229.18525,448.77537 c -0.82288,-0.82288 -0.59625,-12.587 0.4495,-23.33338 1.22925,-12.63183 4.50977,-28.2424 8.16269,-38.8427 4.39032,-12.74014 14.9644,-33.30829 22.59447,-43.94952 7.38739,-10.30282 24.46266,-28.78322 28.6803,-31.04044 2.61243,-1.39813 2.80362,-1.27229 12.18519,8.01998 10.83204,10.72896 16.89265,18.01708 24.34861,29.28017 5.00398,7.5591 15.40937,27.62443 14.69553,28.33828 -0.19151,0.19151 -2.10479,-0.40531 -4.25174,-1.32626 -2.14695,-0.92096 -7.72854,-2.67648 -12.40355,-3.90115 l -8.5,-2.22669 -6.26483,-9.26878 c -3.44565,-5.09783 -8.83425,-12.40939 -11.97468,-16.24792 l -5.70985,-6.97915 -4.356,4.88595 c -22.64963,25.40514 -36.56676,59.80018 -37.29206,92.16437 -0.10204,4.55313 -0.57761,8.52074 -1.05682,8.81691 -1.96436,1.21404 -18.80836,6.10873 -19.30675,5.61033 z"
       id="path2826" />
  </g>
</svg>
