<?xml version="1.0" encoding="UTF-8" standalone="no"?>
<!-- Created with Inkscape (http://www.inkscape.org/) -->

<svg
   xmlns:dc="http://purl.org/dc/elements/1.1/"
   xmlns:cc="http://creativecommons.org/ns#"
   xmlns:rdf="http://www.w3.org/1999/02/22-rdf-syntax-ns#"
   xmlns:svg="http://www.w3.org/2000/svg"
   xmlns="http://www.w3.org/2000/svg"
   xmlns:sodipodi="http://sodipodi.sourceforge.net/DTD/sodipodi-0.dtd"
   xmlns:inkscape="http://www.inkscape.org/namespaces/inkscape"
   width="744.09448819"
   height="1052.3622047"
   id="svg2816"
   version="1.1"
   inkscape:version="0.47 r22583"
   sodipodi:docname="New document 4">
  <defs
     id="defs2818">
    <inkscape:perspective
       sodipodi:type="inkscape:persp3d"
       inkscape:vp_x="0 : 526.18109 : 1"
       inkscape:vp_y="0 : 1000 : 0"
       inkscape:vp_z="744.09448 : 526.18109 : 1"
       inkscape:persp3d-origin="372.04724 : 350.78739 : 1"
       id="perspective2824" />
    <inkscape:perspective
       id="perspective4236"
       inkscape:persp3d-origin="0.5 : 0.33333333 : 1"
       inkscape:vp_z="1 : 0.5 : 1"
       inkscape:vp_y="0 : 1000 : 0"
       inkscape:vp_x="0 : 0.5 : 1"
       sodipodi:type="inkscape:persp3d" />
  </defs>
  <sodipodi:namedview
     id="base"
     pagecolor="#ffffff"
     bordercolor="#ffffff"
     borderopacity="0.0"
     inkscape:pageopacity="0.0"
     inkscape:pageshadow="0"
     inkscape:zoom="1.8957709"
     inkscape:cx="153.66614"
     inkscape:cy="396.0784"
     inkscape:document-units="px"
     inkscape:current-layer="layer1"
     showgrid="false"
     inkscape:window-width="1024"
     inkscape:window-height="712"
     inkscape:window-x="-4"
     inkscape:window-y="-4"
     inkscape:window-maximized="1" />
  <metadata
     id="metadata2821">
    <rdf:RDF>
      <cc:Work
         rdf:about="">
        <dc:format>image/svg+xml</dc:format>
        <dc:type
           rdf:resource="http://purl.org/dc/dcmitype/StillImage" />
        <dc:title></dc:title>
      </cc:Work>
    </rdf:RDF>
  </metadata>
  <g
     inkscape:label="Layer 1"
     inkscape:groupmode="layer"
     id="layer1">
    <path
       style="fill:#ffff00"
       d="m 153.44384,527.3125 c -7.38359,0 -49.9523,43.54944 -59.736303,61.12573 -4.85353,8.71898 -10.54585,23.20537 -12.644412,32.2249 -3.227215,13.87051 -6.327926,18.08274 -20.299409,27.33114 C 41.08001,661.02385 21.32251,688.23518 9.7759774,718.30733 L 1.4375,740.19071 l 8.1334329,6.37111 c 25.6323811,20.04411 81.8512821,32.52322 119.8143471,26.59246 13.46414,-2.10339 25.41407,-2.37518 29.04798,-0.64634 3.3956,1.61549 14.81782,5.07841 25.42552,7.70997 10.60772,2.63159 26.31874,4.91081 34.92592,5.03225 16.28843,0.22966 60.609,-7.65752 78.19031,-13.89641 9.60595,-3.40875 9.99589,-4.43398 7.86004,-19.06716 -5.4845,-37.57579 -21.01585,-68.0807 -48.86894,-95.88984 C 244.50214,644.95087 237.2314,633.67108 233.00112,620.8478 229.59364,610.51868 220.5228,593.17404 212.83841,582.29796 197.97884,561.26667 161.29815,527.3125 153.44384,527.3125 z m 3.48576,57.98634 c 2.26577,-0.0945 4.3875,2.24113 8.95361,7.5253 15.22312,17.61711 17.03947,19.95637 17.15539,21.74488 0.0636,0.98044 -11.29586,1.76655 -25.28882,1.7082 -13.99303,-0.0585 -25.48294,-0.60166 -25.49387,-1.15419 -0.0691,-3.68877 11.46014,-20.17436 17.77052,-25.43828 3.29028,-2.74465 5.1409,-4.31241 6.90317,-4.38591 z m 3.75915,76.17633 c 26.65609,0.0716 33.35391,2.68503 33.35391,13.0654 0,10.67641 -18.21185,38.51877 -28.56954,43.62826 -4.00371,1.97502 -8.17615,3.60106 -9.29535,3.60106 -4.01389,0 -24.19972,-28.29358 -26.17735,-36.70314 -1.11037,-4.72168 -2.62249,-10.51682 -3.41741,-12.88073 -1.98054,-5.88952 13.59715,-10.76581 34.10574,-10.71085 z M 82.225044,691.6687 c 1.500357,-0.0394 2.733927,2.42904 2.733927,5.49393 0,3.06488 4.141505,12.1303 9.227003,20.12901 l 9.295356,14.54276 -8.338481,-0.32317 C 82.985338,731.07029 63.81292,725.5116 61.242154,721.67755 58.933866,718.23488 77.426345,691.79472 82.225044,691.6687 z m 155.970536,13.38856 c 3.38596,-0.0717 18.54897,33.78115 16.13017,36.01063 -3.52666,3.25068 -43.1064,5.22616 -41.62404,2.07754 4.50927,-9.57819 23.5792,-38.04769 25.49387,-38.08817 z"
       id="path2842" />
    <path
       style="fill:#00ff00"
       d="m 259.54294,774.88996 c 38.86509,-6.99397 38.24457,-6.58325 37.74704,-24.98474 -0.55494,-20.5247 -9.54322,-45.41067 -23.48671,-65.02816 -14.33406,-20.16695 -28.08399,-35.31209 -30.24803,-33.31736 -0.9684,0.8926 -2.09959,11.39435 -2.51373,23.3372 -0.61844,17.83306 1.00591,24.9098 9.08781,39.5925 5.41241,9.83303 9.33549,21.14804 8.71789,25.14452 -1.05209,6.80806 -3.09015,7.26629 -32.3178,7.26629 -27.52346,0 -33.71222,-1.18783 -52.58358,-10.09264 -24.29514,-11.46408 -42.77627,-31.20327 -49.5353,-52.90728 -2.41675,-7.76048 -4.80972,-14.63938 -5.31771,-15.28648 -0.50796,-0.64708 -7.57818,2.2709 -15.71157,6.48441 -17.069283,8.84277 -18.245572,14.48882 -7.343414,35.24732 18.338524,34.91799 58.429834,61.67279 101.672204,67.85056 21.01679,3.00255 29.21041,2.56444 61.8329,-3.30614 z"
       id="path2840" />
    <path
       style="fill:#00ff00"
       d="m 124.73696,752.47835 c -10.5348,-8.49446 -23.38603,-15.87329 -28.558294,-16.39748 -15.446688,-1.56536 -40.36348,-8.32438 -42.514687,-11.53272 -3.072365,-4.58218 15.138541,-31.12054 28.492791,-41.52188 26.13873,-20.359 66.81048,-30.90639 95.95937,-24.88517 9.30708,1.92254 17.57876,2.89014 18.38153,2.15022 2.79971,-2.58064 -6.49336,-33.93534 -10.80719,-36.46319 -2.39136,-1.40132 -16.50409,-2.57097 -31.36154,-2.5992 -24.07373,-0.0457 -30.23607,1.38641 -56.625005,13.15988 -16.28631,7.26613 -36.282515,19.1786 -44.436069,26.47212 -16.257767,14.54302 -40.790847,56.81447 -42.067438,72.48396 -0.739035,9.07128 1.238447,10.88183 23.29133,21.32502 18.931482,8.96506 30.240317,11.8717 52.739793,13.55534 15.752469,1.17874 34.945119,1.59292 42.650289,0.9204 l 14.00941,-1.22281 -19.15429,-15.44449 z"
       id="path2838" />
    <path
       style="fill:#00ff00"
       d="m 218.37017,724.03607 c 16.66046,-22.68201 21.82234,-47.197 16.2663,-77.25257 -6.67566,-36.11212 -21.20796,-61.35828 -52.72242,-91.59152 l -27.32164,-26.21097 -13.46871,11.73412 c -22.08958,19.24472 -44.635794,49.56237 -51.257737,68.9257 -3.415834,9.98834 -5.411973,18.89678 -4.435873,19.79649 0.976099,0.89973 9.861668,-1.16353 19.74575,-4.58499 13.48323,-4.66732 19.90962,-9.34522 25.73376,-18.73207 4.2695,-6.88116 11.82152,-16.25234 16.78222,-20.82486 l 9.01945,-8.31367 11.27467,11.1198 c 6.20105,6.11592 15.77528,18.70019 21.27601,27.965 8.34797,14.06038 10.02332,21.01375 10.13403,42.06047 0.12117,23.00684 -0.93857,26.75459 -12.09896,42.79093 -6.72741,9.66658 -14.91114,18.97 -18.18615,20.67423 -4.41772,2.29888 -4.89863,4.08239 -1.86336,6.91072 4.97046,4.63148 30.86322,13.40406 35.9184,12.16932 2.00047,-0.48864 8.84238,-7.97492 15.20426,-16.63613 z"
       id="path2834" />
  </g>
</svg>
